%TF.GenerationSoftware,KiCad,Pcbnew,9.0.2*%
%TF.CreationDate,2026-03-08T15:44:40-07:00*%
%TF.ProjectId,sample_project,73616d70-6c65-45f7-9072-6f6a6563742e,rev?*%
%TF.SameCoordinates,Original*%
%TF.FileFunction,Legend,Top*%
%TF.FilePolarity,Positive*%
%FSLAX46Y46*%
G04 Gerber Fmt 4.6, Leading zero omitted, Abs format (unit mm)*
G04 Created by KiCad (PCBNEW 9.0.2) date 2026-03-08 15:44:40*
%MOMM*%
%LPD*%
G01*
G04 APERTURE LIST*
%ADD10C,0.150000*%
%ADD11C,0.120000*%
G04 APERTURE END LIST*
D10*
X149261905Y-98304819D02*
X149261905Y-97304819D01*
X149261905Y-97304819D02*
X149500000Y-97304819D01*
X149500000Y-97304819D02*
X149642857Y-97352438D01*
X149642857Y-97352438D02*
X149738095Y-97447676D01*
X149738095Y-97447676D02*
X149785714Y-97542914D01*
X149785714Y-97542914D02*
X149833333Y-97733390D01*
X149833333Y-97733390D02*
X149833333Y-97876247D01*
X149833333Y-97876247D02*
X149785714Y-98066723D01*
X149785714Y-98066723D02*
X149738095Y-98161961D01*
X149738095Y-98161961D02*
X149642857Y-98257200D01*
X149642857Y-98257200D02*
X149500000Y-98304819D01*
X149500000Y-98304819D02*
X149261905Y-98304819D01*
X150785714Y-98304819D02*
X150214286Y-98304819D01*
X150500000Y-98304819D02*
X150500000Y-97304819D01*
X150500000Y-97304819D02*
X150404762Y-97447676D01*
X150404762Y-97447676D02*
X150309524Y-97542914D01*
X150309524Y-97542914D02*
X150214286Y-97590533D01*
D11*
%TO.C,D1*%
X148315000Y-98540000D02*
X148315000Y-100460000D01*
X148315000Y-100460000D02*
X151000000Y-100460000D01*
X151000000Y-98540000D02*
X148315000Y-98540000D01*
%TD*%
M02*
