%TF.GenerationSoftware,KiCad,Pcbnew,9.0.2*%
%TF.CreationDate,2026-04-02T15:44:21-07:00*%
%TF.ProjectId,sample_project,73616d70-6c65-45f7-9072-6f6a6563742e,rev?*%
%TF.SameCoordinates,Original*%
%TF.FileFunction,Soldermask,Top*%
%TF.FilePolarity,Negative*%
%FSLAX46Y46*%
G04 Gerber Fmt 4.6, Leading zero omitted, Abs format (unit mm)*
G04 Created by KiCad (PCBNEW 9.0.2) date 2026-04-02 15:44:21*
%MOMM*%
%LPD*%
G01*
G04 APERTURE LIST*
G04 Aperture macros list*
%AMRoundRect*
0 Rectangle with rounded corners*
0 $1 Rounding radius*
0 $2 $3 $4 $5 $6 $7 $8 $9 X,Y pos of 4 corners*
0 Add a 4 corners polygon primitive as box body*
4,1,4,$2,$3,$4,$5,$6,$7,$8,$9,$2,$3,0*
0 Add four circle primitives for the rounded corners*
1,1,$1+$1,$2,$3*
1,1,$1+$1,$4,$5*
1,1,$1+$1,$6,$7*
1,1,$1+$1,$8,$9*
0 Add four rect primitives between the rounded corners*
20,1,$1+$1,$2,$3,$4,$5,0*
20,1,$1+$1,$4,$5,$6,$7,0*
20,1,$1+$1,$6,$7,$8,$9,0*
20,1,$1+$1,$8,$9,$2,$3,0*%
%AMFreePoly0*
4,1,6,1.000000,0.000000,0.500000,-0.750000,-0.500000,-0.750000,-0.500000,0.750000,0.500000,0.750000,1.000000,0.000000,1.000000,0.000000,$1*%
%AMFreePoly1*
4,1,6,0.500000,-0.750000,-0.650000,-0.750000,-0.150000,0.000000,-0.650000,0.750000,0.500000,0.750000,0.500000,-0.750000,0.500000,-0.750000,$1*%
G04 Aperture macros list end*
%ADD10R,1.800000X1.800000*%
%ADD11C,1.800000*%
%ADD12C,1.600000*%
%ADD13C,0.800000*%
%ADD14C,6.400000*%
%ADD15RoundRect,0.250000X-0.450000X0.262500X-0.450000X-0.262500X0.450000X-0.262500X0.450000X0.262500X0*%
%ADD16R,3.600000X2.600000*%
%ADD17RoundRect,0.243750X0.456250X-0.243750X0.456250X0.243750X-0.456250X0.243750X-0.456250X-0.243750X0*%
%ADD18FreePoly0,0.000000*%
%ADD19FreePoly1,0.000000*%
%ADD20RoundRect,0.250000X-1.450000X-0.650000X1.450000X-0.650000X1.450000X0.650000X-1.450000X0.650000X0*%
G04 APERTURE END LIST*
%TO.C,JP1*%
G36*
X133300000Y-122500000D02*
G01*
X135750000Y-122500000D01*
X135750000Y-124000000D01*
X133300000Y-124000000D01*
X133300000Y-122500000D01*
G37*
%TD*%
D10*
%TO.C,D2*%
X146250000Y-114270000D03*
D11*
X146250000Y-111730000D03*
%TD*%
D12*
%TO.C,R2*%
X146250000Y-97670000D03*
X146250000Y-107830000D03*
%TD*%
D13*
%TO.C,H1*%
X142600000Y-91000000D03*
X143302944Y-89302944D03*
X143302944Y-92697056D03*
X145000000Y-88600000D03*
D14*
X145000000Y-91000000D03*
D13*
X145000000Y-93400000D03*
X146697056Y-89302944D03*
X146697056Y-92697056D03*
X147400000Y-91000000D03*
%TD*%
D15*
%TO.C,R1*%
X140250000Y-103908929D03*
X140250000Y-105733929D03*
%TD*%
D16*
%TO.C,BT1*%
X119750000Y-94100000D03*
X119750000Y-123400000D03*
%TD*%
D17*
%TO.C,D3*%
X135250000Y-111437500D03*
X135250000Y-109562500D03*
%TD*%
D18*
%TO.C,JP1*%
X133800000Y-123250000D03*
D19*
X135250000Y-123250000D03*
%TD*%
D17*
%TO.C,D1*%
X140250000Y-111437500D03*
X140250000Y-109562500D03*
%TD*%
D20*
%TO.C,TP1*%
X134525000Y-119250000D03*
%TD*%
D13*
%TO.C,H2*%
X143100000Y-125250000D03*
X143802944Y-123552944D03*
X143802944Y-126947056D03*
X145500000Y-122850000D03*
D14*
X145500000Y-125250000D03*
D13*
X145500000Y-127650000D03*
X147197056Y-123552944D03*
X147197056Y-126947056D03*
X147900000Y-125250000D03*
%TD*%
M02*
