<?xml version="1.0" standalone="no"?>
 <!DOCTYPE svg PUBLIC "-//W3C//DTD SVG 1.1//EN" 
 "http://www.w3.org/Graphics/SVG/1.1/DTD/svg11.dtd"> 
<svg
  xmlns:svg="http://www.w3.org/2000/svg"
  xmlns="http://www.w3.org/2000/svg"
  xmlns:xlink="http://www.w3.org/1999/xlink"
  version="1.1"
  width="297.0022mm" height="210.0072mm" viewBox="0.0000 0.0000 297.0022 210.0072">
<title>SVG Image created as pcb.svg date 2026/03/09 17:12:35 </title>
  <desc>Image generated by PCBNEW </desc>
<g style="fill:#000000; fill-opacity:1.0000;stroke:#000000; stroke-opacity:1.0000;
stroke-linecap:round; stroke-linejoin:round;"
 transform="translate(0 0) scale(1 1)">
</g>
<g style="fill:none; 
stroke:#C872AB; stroke-width:0.1500; stroke-opacity:1; 
stroke-linecap:round; stroke-linejoin:round;">
<path d="M177.0022 166.0072
L285.0022 166.0072
L285.0022 198.0072
L177.0022 198.0072
L177.0022 166.0072
" />
</g>
<g style="fill:none; 
stroke:#C872AB; stroke-width:0.1500; stroke-opacity:1; 
stroke-linecap:round; stroke-linejoin:round;">
<path d="M10.0000 10.0000
L287.0022 10.0000
L287.0022 200.0072
L10.0000 200.0072
L10.0000 10.0000
" />
</g>
<g style="fill:none; 
stroke:#C872AB; stroke-width:0.1500; stroke-opacity:1; 
stroke-linecap:round; stroke-linejoin:round;">
<path d="M12.0000 12.0000
L285.0022 12.0000
L285.0022 198.0072
L12.0000 198.0072
L12.0000 12.0000
" />
</g>
<g style="fill:none; 
stroke:#C872AB; stroke-width:0.1500; stroke-opacity:1; 
stroke-linecap:round; stroke-linejoin:round;">
<path d="M60.0000 12.0000
L60.0000 10.0000
" />
</g>
<g style="fill:none; 
stroke:#C872AB; stroke-width:0.1500; stroke-opacity:1; 
stroke-linecap:round; stroke-linejoin:round;">
<path d="M110.0000 12.0000
L110.0000 10.0000
" />
</g>
<g style="fill:none; 
stroke:#C872AB; stroke-width:0.1500; stroke-opacity:1; 
stroke-linecap:round; stroke-linejoin:round;">
<path d="M160.0000 12.0000
L160.0000 10.0000
" />
</g>
<g style="fill:none; 
stroke:#C872AB; stroke-width:0.1500; stroke-opacity:1; 
stroke-linecap:round; stroke-linejoin:round;">
<path d="M210.0000 12.0000
L210.0000 10.0000
" />
</g>
<g style="fill:none; 
stroke:#C872AB; stroke-width:0.1500; stroke-opacity:1; 
stroke-linecap:round; stroke-linejoin:round;">
<path d="M260.0000 12.0000
L260.0000 10.0000
" />
</g>
<g style="fill:none; 
stroke:#C872AB; stroke-width:0.1500; stroke-opacity:1; 
stroke-linecap:round; stroke-linejoin:round;">
<text x="35.0000" y="11.6500"
textLength="1.4281" font-size="1.7333" lengthAdjust="spacingAndGlyphs"
text-anchor="start" opacity="0" stroke-opacity="0">1</text>
<g class="stroked-text"><desc>1</desc>
<path d="M36.0892 11.5936
L35.3463 11.5936
" />
<path d="M35.7177 11.5936
L35.7177 10.2936
" />
<path d="M35.7177 10.2936
L35.5939 10.4793
" />
<path d="M35.5939 10.4793
L35.4701 10.6031
" />
<path d="M35.4701 10.6031
L35.3463 10.6650
" />
</g></g>
<g style="fill:none; 
stroke:#C872AB; stroke-width:0.1500; stroke-opacity:1; 
stroke-linecap:round; stroke-linejoin:round;">
<text x="85.0000" y="11.6500"
textLength="1.4281" font-size="1.7333" lengthAdjust="spacingAndGlyphs"
text-anchor="start" opacity="0" stroke-opacity="0">2</text>
<g class="stroked-text"><desc>2</desc>
<path d="M85.3463 10.4174
L85.4082 10.3555
" />
<path d="M85.4082 10.3555
L85.5320 10.2936
" />
<path d="M85.5320 10.2936
L85.8415 10.2936
" />
<path d="M85.8415 10.2936
L85.9654 10.3555
" />
<path d="M85.9654 10.3555
L86.0273 10.4174
" />
<path d="M86.0273 10.4174
L86.0892 10.5412
" />
<path d="M86.0892 10.5412
L86.0892 10.6650
" />
<path d="M86.0892 10.6650
L86.0273 10.8507
" />
<path d="M86.0273 10.8507
L85.2844 11.5936
" />
<path d="M85.2844 11.5936
L86.0892 11.5936
" />
</g></g>
<g style="fill:none; 
stroke:#C872AB; stroke-width:0.1500; stroke-opacity:1; 
stroke-linecap:round; stroke-linejoin:round;">
<text x="135.0000" y="11.6500"
textLength="1.4281" font-size="1.7333" lengthAdjust="spacingAndGlyphs"
text-anchor="start" opacity="0" stroke-opacity="0">3</text>
<g class="stroked-text"><desc>3</desc>
<path d="M135.2844 10.2936
L136.0892 10.2936
" />
<path d="M136.0892 10.2936
L135.6558 10.7888
" />
<path d="M135.6558 10.7888
L135.8415 10.7888
" />
<path d="M135.8415 10.7888
L135.9654 10.8507
" />
<path d="M135.9654 10.8507
L136.0273 10.9127
" />
<path d="M136.0273 10.9127
L136.0892 11.0365
" />
<path d="M136.0892 11.0365
L136.0892 11.3460
" />
<path d="M136.0892 11.3460
L136.0273 11.4698
" />
<path d="M136.0273 11.4698
L135.9654 11.5317
" />
<path d="M135.9654 11.5317
L135.8415 11.5936
" />
<path d="M135.8415 11.5936
L135.4701 11.5936
" />
<path d="M135.4701 11.5936
L135.3463 11.5317
" />
<path d="M135.3463 11.5317
L135.2844 11.4698
" />
</g></g>
<g style="fill:none; 
stroke:#C872AB; stroke-width:0.1500; stroke-opacity:1; 
stroke-linecap:round; stroke-linejoin:round;">
<text x="185.0000" y="11.6500"
textLength="1.4281" font-size="1.7333" lengthAdjust="spacingAndGlyphs"
text-anchor="start" opacity="0" stroke-opacity="0">4</text>
<g class="stroked-text"><desc>4</desc>
<path d="M185.9654 10.7269
L185.9654 11.5936
" />
<path d="M185.6558 10.2317
L185.3463 11.1603
" />
<path d="M185.3463 11.1603
L186.1511 11.1603
" />
</g></g>
<g style="fill:none; 
stroke:#C872AB; stroke-width:0.1500; stroke-opacity:1; 
stroke-linecap:round; stroke-linejoin:round;">
<text x="235.0000" y="11.6500"
textLength="1.4281" font-size="1.7333" lengthAdjust="spacingAndGlyphs"
text-anchor="start" opacity="0" stroke-opacity="0">5</text>
<g class="stroked-text"><desc>5</desc>
<path d="M236.0273 10.2936
L235.4082 10.2936
" />
<path d="M235.4082 10.2936
L235.3463 10.9127
" />
<path d="M235.3463 10.9127
L235.4082 10.8507
" />
<path d="M235.4082 10.8507
L235.5320 10.7888
" />
<path d="M235.5320 10.7888
L235.8415 10.7888
" />
<path d="M235.8415 10.7888
L235.9654 10.8507
" />
<path d="M235.9654 10.8507
L236.0273 10.9127
" />
<path d="M236.0273 10.9127
L236.0892 11.0365
" />
<path d="M236.0892 11.0365
L236.0892 11.3460
" />
<path d="M236.0892 11.3460
L236.0273 11.4698
" />
<path d="M236.0273 11.4698
L235.9654 11.5317
" />
<path d="M235.9654 11.5317
L235.8415 11.5936
" />
<path d="M235.8415 11.5936
L235.5320 11.5936
" />
<path d="M235.5320 11.5936
L235.4082 11.5317
" />
<path d="M235.4082 11.5317
L235.3463 11.4698
" />
</g></g>
<g style="fill:none; 
stroke:#C872AB; stroke-width:0.1500; stroke-opacity:1; 
stroke-linecap:round; stroke-linejoin:round;">
<text x="285.0000" y="11.6500"
textLength="1.4281" font-size="1.7333" lengthAdjust="spacingAndGlyphs"
text-anchor="start" opacity="0" stroke-opacity="0">6</text>
<g class="stroked-text"><desc>6</desc>
<path d="M285.9654 10.2936
L285.7177 10.2936
" />
<path d="M285.7177 10.2936
L285.5939 10.3555
" />
<path d="M285.5939 10.3555
L285.5320 10.4174
" />
<path d="M285.5320 10.4174
L285.4082 10.6031
" />
<path d="M285.4082 10.6031
L285.3463 10.8507
" />
<path d="M285.3463 10.8507
L285.3463 11.3460
" />
<path d="M285.3463 11.3460
L285.4082 11.4698
" />
<path d="M285.4082 11.4698
L285.4701 11.5317
" />
<path d="M285.4701 11.5317
L285.5939 11.5936
" />
<path d="M285.5939 11.5936
L285.8415 11.5936
" />
<path d="M285.8415 11.5936
L285.9654 11.5317
" />
<path d="M285.9654 11.5317
L286.0273 11.4698
" />
<path d="M286.0273 11.4698
L286.0892 11.3460
" />
<path d="M286.0892 11.3460
L286.0892 11.0365
" />
<path d="M286.0892 11.0365
L286.0273 10.9127
" />
<path d="M286.0273 10.9127
L285.9654 10.8507
" />
<path d="M285.9654 10.8507
L285.8415 10.7888
" />
<path d="M285.8415 10.7888
L285.5939 10.7888
" />
<path d="M285.5939 10.7888
L285.4701 10.8507
" />
<path d="M285.4701 10.8507
L285.4082 10.9127
" />
<path d="M285.4082 10.9127
L285.3463 11.0365
" />
</g></g>
<g style="fill:none; 
stroke:#C872AB; stroke-width:0.1500; stroke-opacity:1; 
stroke-linecap:round; stroke-linejoin:round;">
<path d="M60.0000 198.0072
L60.0000 200.0072
" />
</g>
<g style="fill:none; 
stroke:#C872AB; stroke-width:0.1500; stroke-opacity:1; 
stroke-linecap:round; stroke-linejoin:round;">
<path d="M110.0000 198.0072
L110.0000 200.0072
" />
</g>
<g style="fill:none; 
stroke:#C872AB; stroke-width:0.1500; stroke-opacity:1; 
stroke-linecap:round; stroke-linejoin:round;">
<path d="M160.0000 198.0072
L160.0000 200.0072
" />
</g>
<g style="fill:none; 
stroke:#C872AB; stroke-width:0.1500; stroke-opacity:1; 
stroke-linecap:round; stroke-linejoin:round;">
<path d="M210.0000 198.0072
L210.0000 200.0072
" />
</g>
<g style="fill:none; 
stroke:#C872AB; stroke-width:0.1500; stroke-opacity:1; 
stroke-linecap:round; stroke-linejoin:round;">
<path d="M260.0000 198.0072
L260.0000 200.0072
" />
</g>
<g style="fill:none; 
stroke:#C872AB; stroke-width:0.1500; stroke-opacity:1; 
stroke-linecap:round; stroke-linejoin:round;">
<text x="35.0000" y="199.6572"
textLength="1.4281" font-size="1.7333" lengthAdjust="spacingAndGlyphs"
text-anchor="start" opacity="0" stroke-opacity="0">1</text>
<g class="stroked-text"><desc>1</desc>
<path d="M36.0892 199.6008
L35.3463 199.6008
" />
<path d="M35.7177 199.6008
L35.7177 198.3008
" />
<path d="M35.7177 198.3008
L35.5939 198.4865
" />
<path d="M35.5939 198.4865
L35.4701 198.6103
" />
<path d="M35.4701 198.6103
L35.3463 198.6722
" />
</g></g>
<g style="fill:none; 
stroke:#C872AB; stroke-width:0.1500; stroke-opacity:1; 
stroke-linecap:round; stroke-linejoin:round;">
<text x="85.0000" y="199.6572"
textLength="1.4281" font-size="1.7333" lengthAdjust="spacingAndGlyphs"
text-anchor="start" opacity="0" stroke-opacity="0">2</text>
<g class="stroked-text"><desc>2</desc>
<path d="M85.3463 198.4246
L85.4082 198.3627
" />
<path d="M85.4082 198.3627
L85.5320 198.3008
" />
<path d="M85.5320 198.3008
L85.8415 198.3008
" />
<path d="M85.8415 198.3008
L85.9654 198.3627
" />
<path d="M85.9654 198.3627
L86.0273 198.4246
" />
<path d="M86.0273 198.4246
L86.0892 198.5484
" />
<path d="M86.0892 198.5484
L86.0892 198.6722
" />
<path d="M86.0892 198.6722
L86.0273 198.8579
" />
<path d="M86.0273 198.8579
L85.2844 199.6008
" />
<path d="M85.2844 199.6008
L86.0892 199.6008
" />
</g></g>
<g style="fill:none; 
stroke:#C872AB; stroke-width:0.1500; stroke-opacity:1; 
stroke-linecap:round; stroke-linejoin:round;">
<text x="135.0000" y="199.6572"
textLength="1.4281" font-size="1.7333" lengthAdjust="spacingAndGlyphs"
text-anchor="start" opacity="0" stroke-opacity="0">3</text>
<g class="stroked-text"><desc>3</desc>
<path d="M135.2844 198.3008
L136.0892 198.3008
" />
<path d="M136.0892 198.3008
L135.6558 198.7960
" />
<path d="M135.6558 198.7960
L135.8415 198.7960
" />
<path d="M135.8415 198.7960
L135.9654 198.8579
" />
<path d="M135.9654 198.8579
L136.0273 198.9199
" />
<path d="M136.0273 198.9199
L136.0892 199.0437
" />
<path d="M136.0892 199.0437
L136.0892 199.3532
" />
<path d="M136.0892 199.3532
L136.0273 199.4770
" />
<path d="M136.0273 199.4770
L135.9654 199.5389
" />
<path d="M135.9654 199.5389
L135.8415 199.6008
" />
<path d="M135.8415 199.6008
L135.4701 199.6008
" />
<path d="M135.4701 199.6008
L135.3463 199.5389
" />
<path d="M135.3463 199.5389
L135.2844 199.4770
" />
</g></g>
<g style="fill:none; 
stroke:#C872AB; stroke-width:0.1500; stroke-opacity:1; 
stroke-linecap:round; stroke-linejoin:round;">
<text x="185.0000" y="199.6572"
textLength="1.4281" font-size="1.7333" lengthAdjust="spacingAndGlyphs"
text-anchor="start" opacity="0" stroke-opacity="0">4</text>
<g class="stroked-text"><desc>4</desc>
<path d="M185.9654 198.7341
L185.9654 199.6008
" />
<path d="M185.6558 198.2389
L185.3463 199.1675
" />
<path d="M185.3463 199.1675
L186.1511 199.1675
" />
</g></g>
<g style="fill:none; 
stroke:#C872AB; stroke-width:0.1500; stroke-opacity:1; 
stroke-linecap:round; stroke-linejoin:round;">
<text x="235.0000" y="199.6572"
textLength="1.4281" font-size="1.7333" lengthAdjust="spacingAndGlyphs"
text-anchor="start" opacity="0" stroke-opacity="0">5</text>
<g class="stroked-text"><desc>5</desc>
<path d="M236.0273 198.3008
L235.4082 198.3008
" />
<path d="M235.4082 198.3008
L235.3463 198.9199
" />
<path d="M235.3463 198.9199
L235.4082 198.8579
" />
<path d="M235.4082 198.8579
L235.5320 198.7960
" />
<path d="M235.5320 198.7960
L235.8415 198.7960
" />
<path d="M235.8415 198.7960
L235.9654 198.8579
" />
<path d="M235.9654 198.8579
L236.0273 198.9199
" />
<path d="M236.0273 198.9199
L236.0892 199.0437
" />
<path d="M236.0892 199.0437
L236.0892 199.3532
" />
<path d="M236.0892 199.3532
L236.0273 199.4770
" />
<path d="M236.0273 199.4770
L235.9654 199.5389
" />
<path d="M235.9654 199.5389
L235.8415 199.6008
" />
<path d="M235.8415 199.6008
L235.5320 199.6008
" />
<path d="M235.5320 199.6008
L235.4082 199.5389
" />
<path d="M235.4082 199.5389
L235.3463 199.4770
" />
</g></g>
<g style="fill:none; 
stroke:#C872AB; stroke-width:0.1500; stroke-opacity:1; 
stroke-linecap:round; stroke-linejoin:round;">
<text x="285.0000" y="199.6572"
textLength="1.4281" font-size="1.7333" lengthAdjust="spacingAndGlyphs"
text-anchor="start" opacity="0" stroke-opacity="0">6</text>
<g class="stroked-text"><desc>6</desc>
<path d="M285.9654 198.3008
L285.7177 198.3008
" />
<path d="M285.7177 198.3008
L285.5939 198.3627
" />
<path d="M285.5939 198.3627
L285.5320 198.4246
" />
<path d="M285.5320 198.4246
L285.4082 198.6103
" />
<path d="M285.4082 198.6103
L285.3463 198.8579
" />
<path d="M285.3463 198.8579
L285.3463 199.3532
" />
<path d="M285.3463 199.3532
L285.4082 199.4770
" />
<path d="M285.4082 199.4770
L285.4701 199.5389
" />
<path d="M285.4701 199.5389
L285.5939 199.6008
" />
<path d="M285.5939 199.6008
L285.8415 199.6008
" />
<path d="M285.8415 199.6008
L285.9654 199.5389
" />
<path d="M285.9654 199.5389
L286.0273 199.4770
" />
<path d="M286.0273 199.4770
L286.0892 199.3532
" />
<path d="M286.0892 199.3532
L286.0892 199.0437
" />
<path d="M286.0892 199.0437
L286.0273 198.9199
" />
<path d="M286.0273 198.9199
L285.9654 198.8579
" />
<path d="M285.9654 198.8579
L285.8415 198.7960
" />
<path d="M285.8415 198.7960
L285.5939 198.7960
" />
<path d="M285.5939 198.7960
L285.4701 198.8579
" />
<path d="M285.4701 198.8579
L285.4082 198.9199
" />
<path d="M285.4082 198.9199
L285.3463 199.0437
" />
</g></g>
<g style="fill:none; 
stroke:#C872AB; stroke-width:0.1500; stroke-opacity:1; 
stroke-linecap:round; stroke-linejoin:round;">
<path d="M10.0000 60.0000
L12.0000 60.0000
" />
</g>
<g style="fill:none; 
stroke:#C872AB; stroke-width:0.1500; stroke-opacity:1; 
stroke-linecap:round; stroke-linejoin:round;">
<path d="M10.0000 110.0000
L12.0000 110.0000
" />
</g>
<g style="fill:none; 
stroke:#C872AB; stroke-width:0.1500; stroke-opacity:1; 
stroke-linecap:round; stroke-linejoin:round;">
<path d="M10.0000 160.0000
L12.0000 160.0000
" />
</g>
<g style="fill:none; 
stroke:#C872AB; stroke-width:0.1500; stroke-opacity:1; 
stroke-linecap:round; stroke-linejoin:round;">
<text x="11.0000" y="35.6500"
textLength="1.3043" font-size="1.7333" lengthAdjust="spacingAndGlyphs"
text-anchor="middle" opacity="0" stroke-opacity="0">A</text>
<g class="stroked-text"><desc>A</desc>
<path d="M10.6905 35.2222
L11.3095 35.2222
" />
<path d="M10.5667 35.5936
L11.0000 34.2936
" />
<path d="M11.0000 34.2936
L11.4333 35.5936
" />
</g></g>
<g style="fill:none; 
stroke:#C872AB; stroke-width:0.1500; stroke-opacity:1; 
stroke-linecap:round; stroke-linejoin:round;">
<text x="11.0000" y="85.6500"
textLength="1.4900" font-size="1.7333" lengthAdjust="spacingAndGlyphs"
text-anchor="middle" opacity="0" stroke-opacity="0">B</text>
<g class="stroked-text"><desc>B</desc>
<path d="M11.0929 84.9127
L11.2786 84.9746
" />
<path d="M11.2786 84.9746
L11.3405 85.0365
" />
<path d="M11.3405 85.0365
L11.4024 85.1603
" />
<path d="M11.4024 85.1603
L11.4024 85.3460
" />
<path d="M11.4024 85.3460
L11.3405 85.4698
" />
<path d="M11.3405 85.4698
L11.2786 85.5317
" />
<path d="M11.2786 85.5317
L11.1548 85.5936
" />
<path d="M11.1548 85.5936
L10.6595 85.5936
" />
<path d="M10.6595 85.5936
L10.6595 84.2936
" />
<path d="M10.6595 84.2936
L11.0929 84.2936
" />
<path d="M11.0929 84.2936
L11.2167 84.3555
" />
<path d="M11.2167 84.3555
L11.2786 84.4174
" />
<path d="M11.2786 84.4174
L11.3405 84.5412
" />
<path d="M11.3405 84.5412
L11.3405 84.6650
" />
<path d="M11.3405 84.6650
L11.2786 84.7888
" />
<path d="M11.2786 84.7888
L11.2167 84.8507
" />
<path d="M11.2167 84.8507
L11.0929 84.9127
" />
<path d="M11.0929 84.9127
L10.6595 84.9127
" />
</g></g>
<g style="fill:none; 
stroke:#C872AB; stroke-width:0.1500; stroke-opacity:1; 
stroke-linecap:round; stroke-linejoin:round;">
<text x="11.0000" y="135.6500"
textLength="1.4900" font-size="1.7333" lengthAdjust="spacingAndGlyphs"
text-anchor="middle" opacity="0" stroke-opacity="0">C</text>
<g class="stroked-text"><desc>C</desc>
<path d="M11.4024 135.4698
L11.3405 135.5317
" />
<path d="M11.3405 135.5317
L11.1548 135.5936
" />
<path d="M11.1548 135.5936
L11.0310 135.5936
" />
<path d="M11.0310 135.5936
L10.8452 135.5317
" />
<path d="M10.8452 135.5317
L10.7214 135.4079
" />
<path d="M10.7214 135.4079
L10.6595 135.2841
" />
<path d="M10.6595 135.2841
L10.5976 135.0365
" />
<path d="M10.5976 135.0365
L10.5976 134.8507
" />
<path d="M10.5976 134.8507
L10.6595 134.6031
" />
<path d="M10.6595 134.6031
L10.7214 134.4793
" />
<path d="M10.7214 134.4793
L10.8452 134.3555
" />
<path d="M10.8452 134.3555
L11.0310 134.2936
" />
<path d="M11.0310 134.2936
L11.1548 134.2936
" />
<path d="M11.1548 134.2936
L11.3405 134.3555
" />
<path d="M11.3405 134.3555
L11.4024 134.4174
" />
</g></g>
<g style="fill:none; 
stroke:#C872AB; stroke-width:0.1500; stroke-opacity:1; 
stroke-linecap:round; stroke-linejoin:round;">
<text x="11.0000" y="185.6500"
textLength="1.4900" font-size="1.7333" lengthAdjust="spacingAndGlyphs"
text-anchor="middle" opacity="0" stroke-opacity="0">D</text>
<g class="stroked-text"><desc>D</desc>
<path d="M10.6595 185.5936
L10.6595 184.2936
" />
<path d="M10.6595 184.2936
L10.9690 184.2936
" />
<path d="M10.9690 184.2936
L11.1548 184.3555
" />
<path d="M11.1548 184.3555
L11.2786 184.4793
" />
<path d="M11.2786 184.4793
L11.3405 184.6031
" />
<path d="M11.3405 184.6031
L11.4024 184.8507
" />
<path d="M11.4024 184.8507
L11.4024 185.0365
" />
<path d="M11.4024 185.0365
L11.3405 185.2841
" />
<path d="M11.3405 185.2841
L11.2786 185.4079
" />
<path d="M11.2786 185.4079
L11.1548 185.5317
" />
<path d="M11.1548 185.5317
L10.9690 185.5936
" />
<path d="M10.9690 185.5936
L10.6595 185.5936
" />
</g></g>
<g style="fill:none; 
stroke:#C872AB; stroke-width:0.1500; stroke-opacity:1; 
stroke-linecap:round; stroke-linejoin:round;">
<path d="M287.0022 60.0000
L285.0022 60.0000
" />
</g>
<g style="fill:none; 
stroke:#C872AB; stroke-width:0.1500; stroke-opacity:1; 
stroke-linecap:round; stroke-linejoin:round;">
<path d="M287.0022 110.0000
L285.0022 110.0000
" />
</g>
<g style="fill:none; 
stroke:#C872AB; stroke-width:0.1500; stroke-opacity:1; 
stroke-linecap:round; stroke-linejoin:round;">
<path d="M287.0022 160.0000
L285.0022 160.0000
" />
</g>
<g style="fill:none; 
stroke:#C872AB; stroke-width:0.1500; stroke-opacity:1; 
stroke-linecap:round; stroke-linejoin:round;">
<text x="286.0022" y="35.6500"
textLength="1.3043" font-size="1.7333" lengthAdjust="spacingAndGlyphs"
text-anchor="middle" opacity="0" stroke-opacity="0">A</text>
<g class="stroked-text"><desc>A</desc>
<path d="M285.6927 35.2222
L286.3117 35.2222
" />
<path d="M285.5689 35.5936
L286.0022 34.2936
" />
<path d="M286.0022 34.2936
L286.4355 35.5936
" />
</g></g>
<g style="fill:none; 
stroke:#C872AB; stroke-width:0.1500; stroke-opacity:1; 
stroke-linecap:round; stroke-linejoin:round;">
<text x="286.0022" y="85.6500"
textLength="1.4900" font-size="1.7333" lengthAdjust="spacingAndGlyphs"
text-anchor="middle" opacity="0" stroke-opacity="0">B</text>
<g class="stroked-text"><desc>B</desc>
<path d="M286.0951 84.9127
L286.2808 84.9746
" />
<path d="M286.2808 84.9746
L286.3427 85.0365
" />
<path d="M286.3427 85.0365
L286.4046 85.1603
" />
<path d="M286.4046 85.1603
L286.4046 85.3460
" />
<path d="M286.4046 85.3460
L286.3427 85.4698
" />
<path d="M286.3427 85.4698
L286.2808 85.5317
" />
<path d="M286.2808 85.5317
L286.1570 85.5936
" />
<path d="M286.1570 85.5936
L285.6617 85.5936
" />
<path d="M285.6617 85.5936
L285.6617 84.2936
" />
<path d="M285.6617 84.2936
L286.0951 84.2936
" />
<path d="M286.0951 84.2936
L286.2189 84.3555
" />
<path d="M286.2189 84.3555
L286.2808 84.4174
" />
<path d="M286.2808 84.4174
L286.3427 84.5412
" />
<path d="M286.3427 84.5412
L286.3427 84.6650
" />
<path d="M286.3427 84.6650
L286.2808 84.7888
" />
<path d="M286.2808 84.7888
L286.2189 84.8507
" />
<path d="M286.2189 84.8507
L286.0951 84.9127
" />
<path d="M286.0951 84.9127
L285.6617 84.9127
" />
</g></g>
<g style="fill:none; 
stroke:#C872AB; stroke-width:0.1500; stroke-opacity:1; 
stroke-linecap:round; stroke-linejoin:round;">
<text x="286.0022" y="135.6500"
textLength="1.4900" font-size="1.7333" lengthAdjust="spacingAndGlyphs"
text-anchor="middle" opacity="0" stroke-opacity="0">C</text>
<g class="stroked-text"><desc>C</desc>
<path d="M286.4046 135.4698
L286.3427 135.5317
" />
<path d="M286.3427 135.5317
L286.1570 135.5936
" />
<path d="M286.1570 135.5936
L286.0332 135.5936
" />
<path d="M286.0332 135.5936
L285.8474 135.5317
" />
<path d="M285.8474 135.5317
L285.7236 135.4079
" />
<path d="M285.7236 135.4079
L285.6617 135.2841
" />
<path d="M285.6617 135.2841
L285.5998 135.0365
" />
<path d="M285.5998 135.0365
L285.5998 134.8507
" />
<path d="M285.5998 134.8507
L285.6617 134.6031
" />
<path d="M285.6617 134.6031
L285.7236 134.4793
" />
<path d="M285.7236 134.4793
L285.8474 134.3555
" />
<path d="M285.8474 134.3555
L286.0332 134.2936
" />
<path d="M286.0332 134.2936
L286.1570 134.2936
" />
<path d="M286.1570 134.2936
L286.3427 134.3555
" />
<path d="M286.3427 134.3555
L286.4046 134.4174
" />
</g></g>
<g style="fill:none; 
stroke:#C872AB; stroke-width:0.1500; stroke-opacity:1; 
stroke-linecap:round; stroke-linejoin:round;">
<text x="286.0022" y="185.6500"
textLength="1.4900" font-size="1.7333" lengthAdjust="spacingAndGlyphs"
text-anchor="middle" opacity="0" stroke-opacity="0">D</text>
<g class="stroked-text"><desc>D</desc>
<path d="M285.6617 185.5936
L285.6617 184.2936
" />
<path d="M285.6617 184.2936
L285.9712 184.2936
" />
<path d="M285.9712 184.2936
L286.1570 184.3555
" />
<path d="M286.1570 184.3555
L286.2808 184.4793
" />
<path d="M286.2808 184.4793
L286.3427 184.6031
" />
<path d="M286.3427 184.6031
L286.4046 184.8507
" />
<path d="M286.4046 184.8507
L286.4046 185.0365
" />
<path d="M286.4046 185.0365
L286.3427 185.2841
" />
<path d="M286.3427 185.2841
L286.2808 185.4079
" />
<path d="M286.2808 185.4079
L286.1570 185.5317
" />
<path d="M286.1570 185.5317
L285.9712 185.5936
" />
<path d="M285.9712 185.5936
L285.6617 185.5936
" />
</g></g>
<g style="fill:none; 
stroke:#C872AB; stroke-width:0.1500; stroke-opacity:1; 
stroke-linecap:round; stroke-linejoin:round;">
<text x="200.0022" y="193.8572"
textLength="7.0071" font-size="2.0000" lengthAdjust="spacingAndGlyphs"
text-anchor="start" opacity="0" stroke-opacity="0">Date: </text>
<g class="stroked-text"><desc>Date: </desc>
<path d="M200.4580 193.7933
L200.4580 192.2933
" />
<path d="M200.4580 192.2933
L200.8152 192.2933
" />
<path d="M200.8152 192.2933
L201.0295 192.3648
" />
<path d="M201.0295 192.3648
L201.1723 192.5076
" />
<path d="M201.1723 192.5076
L201.2437 192.6505
" />
<path d="M201.2437 192.6505
L201.3152 192.9362
" />
<path d="M201.3152 192.9362
L201.3152 193.1505
" />
<path d="M201.3152 193.1505
L201.2437 193.4362
" />
<path d="M201.2437 193.4362
L201.1723 193.5790
" />
<path d="M201.1723 193.5790
L201.0295 193.7219
" />
<path d="M201.0295 193.7219
L200.8152 193.7933
" />
<path d="M200.8152 193.7933
L200.4580 193.7933
" />
<path d="M202.6009 193.7933
L202.6009 193.0076
" />
<path d="M202.6009 193.0076
L202.5295 192.8648
" />
<path d="M202.5295 192.8648
L202.3866 192.7933
" />
<path d="M202.3866 192.7933
L202.1009 192.7933
" />
<path d="M202.1009 192.7933
L201.9580 192.8648
" />
<path d="M202.6009 193.7219
L202.4580 193.7933
" />
<path d="M202.4580 193.7933
L202.1009 193.7933
" />
<path d="M202.1009 193.7933
L201.9580 193.7219
" />
<path d="M201.9580 193.7219
L201.8866 193.5790
" />
<path d="M201.8866 193.5790
L201.8866 193.4362
" />
<path d="M201.8866 193.4362
L201.9580 193.2933
" />
<path d="M201.9580 193.2933
L202.1009 193.2219
" />
<path d="M202.1009 193.2219
L202.4580 193.2219
" />
<path d="M202.4580 193.2219
L202.6009 193.1505
" />
<path d="M203.1009 192.7933
L203.6723 192.7933
" />
<path d="M203.3152 192.2933
L203.3152 193.5790
" />
<path d="M203.3152 193.5790
L203.3866 193.7219
" />
<path d="M203.3866 193.7219
L203.5295 193.7933
" />
<path d="M203.5295 193.7933
L203.6723 193.7933
" />
<path d="M204.7437 193.7219
L204.6009 193.7933
" />
<path d="M204.6009 193.7933
L204.3152 193.7933
" />
<path d="M204.3152 193.7933
L204.1723 193.7219
" />
<path d="M204.1723 193.7219
L204.1009 193.5790
" />
<path d="M204.1009 193.5790
L204.1009 193.0076
" />
<path d="M204.1009 193.0076
L204.1723 192.8648
" />
<path d="M204.1723 192.8648
L204.3152 192.7933
" />
<path d="M204.3152 192.7933
L204.6009 192.7933
" />
<path d="M204.6009 192.7933
L204.7437 192.8648
" />
<path d="M204.7437 192.8648
L204.8152 193.0076
" />
<path d="M204.8152 193.0076
L204.8152 193.1505
" />
<path d="M204.8152 193.1505
L204.1009 193.2933
" />
<path d="M205.4580 193.6505
L205.5295 193.7219
" />
<path d="M205.5295 193.7219
L205.4580 193.7933
" />
<path d="M205.4580 193.7933
L205.3866 193.7219
" />
<path d="M205.3866 193.7219
L205.4580 193.6505
" />
<path d="M205.4580 193.6505
L205.4580 193.7933
" />
<path d="M205.4580 192.8648
L205.5295 192.9362
" />
<path d="M205.5295 192.9362
L205.4580 193.0076
" />
<path d="M205.4580 193.0076
L205.3866 192.9362
" />
<path d="M205.3866 192.9362
L205.4580 192.8648
" />
<path d="M205.4580 192.8648
L205.4580 193.0076
" />
</g></g>
<g style="fill:none; 
stroke:#C872AB; stroke-width:0.1500; stroke-opacity:1; 
stroke-linecap:round; stroke-linejoin:round;">
<path d="M177.0022 194.5072
L285.0022 194.5072
" />
</g>
<g style="fill:none; 
stroke:#C872AB; stroke-width:0.1500; stroke-opacity:1; 
stroke-linecap:round; stroke-linejoin:round;">
<text x="178.0022" y="196.6572"
textLength="20.8643" font-size="2.0000" lengthAdjust="spacingAndGlyphs"
text-anchor="start" opacity="0" stroke-opacity="0">KiCad E.D.A. 9.0.2</text>
<g class="stroked-text"><desc>KiCad E.D.A. 9.0.2</desc>
<path d="M178.4580 196.5933
L178.4580 195.0933
" />
<path d="M179.3152 196.5933
L178.6723 195.7362
" />
<path d="M179.3152 195.0933
L178.4580 195.9505
" />
<path d="M179.9580 196.5933
L179.9580 195.5933
" />
<path d="M179.9580 195.0933
L179.8866 195.1648
" />
<path d="M179.8866 195.1648
L179.9580 195.2362
" />
<path d="M179.9580 195.2362
L180.0295 195.1648
" />
<path d="M180.0295 195.1648
L179.9580 195.0933
" />
<path d="M179.9580 195.0933
L179.9580 195.2362
" />
<path d="M181.5295 196.4505
L181.4580 196.5219
" />
<path d="M181.4580 196.5219
L181.2437 196.5933
" />
<path d="M181.2437 196.5933
L181.1009 196.5933
" />
<path d="M181.1009 196.5933
L180.8866 196.5219
" />
<path d="M180.8866 196.5219
L180.7437 196.3790
" />
<path d="M180.7437 196.3790
L180.6723 196.2362
" />
<path d="M180.6723 196.2362
L180.6009 195.9505
" />
<path d="M180.6009 195.9505
L180.6009 195.7362
" />
<path d="M180.6009 195.7362
L180.6723 195.4505
" />
<path d="M180.6723 195.4505
L180.7437 195.3076
" />
<path d="M180.7437 195.3076
L180.8866 195.1648
" />
<path d="M180.8866 195.1648
L181.1009 195.0933
" />
<path d="M181.1009 195.0933
L181.2437 195.0933
" />
<path d="M181.2437 195.0933
L181.4580 195.1648
" />
<path d="M181.4580 195.1648
L181.5295 195.2362
" />
<path d="M182.8152 196.5933
L182.8152 195.8076
" />
<path d="M182.8152 195.8076
L182.7437 195.6648
" />
<path d="M182.7437 195.6648
L182.6009 195.5933
" />
<path d="M182.6009 195.5933
L182.3152 195.5933
" />
<path d="M182.3152 195.5933
L182.1723 195.6648
" />
<path d="M182.8152 196.5219
L182.6723 196.5933
" />
<path d="M182.6723 196.5933
L182.3152 196.5933
" />
<path d="M182.3152 196.5933
L182.1723 196.5219
" />
<path d="M182.1723 196.5219
L182.1009 196.3790
" />
<path d="M182.1009 196.3790
L182.1009 196.2362
" />
<path d="M182.1009 196.2362
L182.1723 196.0933
" />
<path d="M182.1723 196.0933
L182.3152 196.0219
" />
<path d="M182.3152 196.0219
L182.6723 196.0219
" />
<path d="M182.6723 196.0219
L182.8152 195.9505
" />
<path d="M184.1723 196.5933
L184.1723 195.0933
" />
<path d="M184.1723 196.5219
L184.0295 196.5933
" />
<path d="M184.0295 196.5933
L183.7437 196.5933
" />
<path d="M183.7437 196.5933
L183.6009 196.5219
" />
<path d="M183.6009 196.5219
L183.5295 196.4505
" />
<path d="M183.5295 196.4505
L183.4580 196.3076
" />
<path d="M183.4580 196.3076
L183.4580 195.8790
" />
<path d="M183.4580 195.8790
L183.5295 195.7362
" />
<path d="M183.5295 195.7362
L183.6009 195.6648
" />
<path d="M183.6009 195.6648
L183.7437 195.5933
" />
<path d="M183.7437 195.5933
L184.0295 195.5933
" />
<path d="M184.0295 195.5933
L184.1723 195.6648
" />
<path d="M186.0295 195.8076
L186.5295 195.8076
" />
<path d="M186.7437 196.5933
L186.0295 196.5933
" />
<path d="M186.0295 196.5933
L186.0295 195.0933
" />
<path d="M186.0295 195.0933
L186.7437 195.0933
" />
<path d="M187.3866 196.4505
L187.4580 196.5219
" />
<path d="M187.4580 196.5219
L187.3866 196.5933
" />
<path d="M187.3866 196.5933
L187.3152 196.5219
" />
<path d="M187.3152 196.5219
L187.3866 196.4505
" />
<path d="M187.3866 196.4505
L187.3866 196.5933
" />
<path d="M188.1009 196.5933
L188.1009 195.0933
" />
<path d="M188.1009 195.0933
L188.4580 195.0933
" />
<path d="M188.4580 195.0933
L188.6723 195.1648
" />
<path d="M188.6723 195.1648
L188.8152 195.3076
" />
<path d="M188.8152 195.3076
L188.8866 195.4505
" />
<path d="M188.8866 195.4505
L188.9580 195.7362
" />
<path d="M188.9580 195.7362
L188.9580 195.9505
" />
<path d="M188.9580 195.9505
L188.8866 196.2362
" />
<path d="M188.8866 196.2362
L188.8152 196.3790
" />
<path d="M188.8152 196.3790
L188.6723 196.5219
" />
<path d="M188.6723 196.5219
L188.4580 196.5933
" />
<path d="M188.4580 196.5933
L188.1009 196.5933
" />
<path d="M189.6009 196.4505
L189.6723 196.5219
" />
<path d="M189.6723 196.5219
L189.6009 196.5933
" />
<path d="M189.6009 196.5933
L189.5295 196.5219
" />
<path d="M189.5295 196.5219
L189.6009 196.4505
" />
<path d="M189.6009 196.4505
L189.6009 196.5933
" />
<path d="M190.2437 196.1648
L190.9580 196.1648
" />
<path d="M190.1009 196.5933
L190.6009 195.0933
" />
<path d="M190.6009 195.0933
L191.1009 196.5933
" />
<path d="M191.6009 196.4505
L191.6723 196.5219
" />
<path d="M191.6723 196.5219
L191.6009 196.5933
" />
<path d="M191.6009 196.5933
L191.5295 196.5219
" />
<path d="M191.5295 196.5219
L191.6009 196.4505
" />
<path d="M191.6009 196.4505
L191.6009 196.5933
" />
<path d="M193.5295 196.5933
L193.8152 196.5933
" />
<path d="M193.8152 196.5933
L193.9580 196.5219
" />
<path d="M193.9580 196.5219
L194.0295 196.4505
" />
<path d="M194.0295 196.4505
L194.1723 196.2362
" />
<path d="M194.1723 196.2362
L194.2437 195.9505
" />
<path d="M194.2437 195.9505
L194.2437 195.3790
" />
<path d="M194.2437 195.3790
L194.1723 195.2362
" />
<path d="M194.1723 195.2362
L194.1009 195.1648
" />
<path d="M194.1009 195.1648
L193.9580 195.0933
" />
<path d="M193.9580 195.0933
L193.6723 195.0933
" />
<path d="M193.6723 195.0933
L193.5295 195.1648
" />
<path d="M193.5295 195.1648
L193.4580 195.2362
" />
<path d="M193.4580 195.2362
L193.3866 195.3790
" />
<path d="M193.3866 195.3790
L193.3866 195.7362
" />
<path d="M193.3866 195.7362
L193.4580 195.8790
" />
<path d="M193.4580 195.8790
L193.5295 195.9505
" />
<path d="M193.5295 195.9505
L193.6723 196.0219
" />
<path d="M193.6723 196.0219
L193.9580 196.0219
" />
<path d="M193.9580 196.0219
L194.1009 195.9505
" />
<path d="M194.1009 195.9505
L194.1723 195.8790
" />
<path d="M194.1723 195.8790
L194.2437 195.7362
" />
<path d="M194.8866 196.4505
L194.9580 196.5219
" />
<path d="M194.9580 196.5219
L194.8866 196.5933
" />
<path d="M194.8866 196.5933
L194.8152 196.5219
" />
<path d="M194.8152 196.5219
L194.8866 196.4505
" />
<path d="M194.8866 196.4505
L194.8866 196.5933
" />
<path d="M195.8866 195.0933
L196.0295 195.0933
" />
<path d="M196.0295 195.0933
L196.1723 195.1648
" />
<path d="M196.1723 195.1648
L196.2437 195.2362
" />
<path d="M196.2437 195.2362
L196.3152 195.3790
" />
<path d="M196.3152 195.3790
L196.3866 195.6648
" />
<path d="M196.3866 195.6648
L196.3866 196.0219
" />
<path d="M196.3866 196.0219
L196.3152 196.3076
" />
<path d="M196.3152 196.3076
L196.2437 196.4505
" />
<path d="M196.2437 196.4505
L196.1723 196.5219
" />
<path d="M196.1723 196.5219
L196.0295 196.5933
" />
<path d="M196.0295 196.5933
L195.8866 196.5933
" />
<path d="M195.8866 196.5933
L195.7437 196.5219
" />
<path d="M195.7437 196.5219
L195.6723 196.4505
" />
<path d="M195.6723 196.4505
L195.6009 196.3076
" />
<path d="M195.6009 196.3076
L195.5295 196.0219
" />
<path d="M195.5295 196.0219
L195.5295 195.6648
" />
<path d="M195.5295 195.6648
L195.6009 195.3790
" />
<path d="M195.6009 195.3790
L195.6723 195.2362
" />
<path d="M195.6723 195.2362
L195.7437 195.1648
" />
<path d="M195.7437 195.1648
L195.8866 195.0933
" />
<path d="M197.0295 196.4505
L197.1009 196.5219
" />
<path d="M197.1009 196.5219
L197.0295 196.5933
" />
<path d="M197.0295 196.5933
L196.9580 196.5219
" />
<path d="M196.9580 196.5219
L197.0295 196.4505
" />
<path d="M197.0295 196.4505
L197.0295 196.5933
" />
<path d="M197.6723 195.2362
L197.7437 195.1648
" />
<path d="M197.7437 195.1648
L197.8866 195.0933
" />
<path d="M197.8866 195.0933
L198.2437 195.0933
" />
<path d="M198.2437 195.0933
L198.3866 195.1648
" />
<path d="M198.3866 195.1648
L198.4580 195.2362
" />
<path d="M198.4580 195.2362
L198.5295 195.3790
" />
<path d="M198.5295 195.3790
L198.5295 195.5219
" />
<path d="M198.5295 195.5219
L198.4580 195.7362
" />
<path d="M198.4580 195.7362
L197.6009 196.5933
" />
<path d="M197.6009 196.5933
L198.5295 196.5933
" />
</g></g>
<g style="fill:none; 
stroke:#C872AB; stroke-width:0.1500; stroke-opacity:1; 
stroke-linecap:round; stroke-linejoin:round;">
<path d="M177.0022 191.5072
L285.0022 191.5072
" />
</g>
<g style="fill:none; 
stroke:#C872AB; stroke-width:0.3000; stroke-opacity:1; 
stroke-linecap:round; stroke-linejoin:round;">
<text x="263.0022" y="193.8572"
textLength="6.3857" font-size="2.0000" lengthAdjust="spacingAndGlyphs"
text-anchor="start" opacity="0" stroke-opacity="0">Rev: </text>
<g class="stroked-text"><desc>Rev: </desc>
<path d="M264.4139 193.7855
L263.9139 193.0712
" />
<path d="M263.5567 193.7855
L263.5567 192.2855
" />
<path d="M263.5567 192.2855
L264.1281 192.2855
" />
<path d="M264.1281 192.2855
L264.2710 192.3570
" />
<path d="M264.2710 192.3570
L264.3424 192.4284
" />
<path d="M264.3424 192.4284
L264.4139 192.5712
" />
<path d="M264.4139 192.5712
L264.4139 192.7855
" />
<path d="M264.4139 192.7855
L264.3424 192.9284
" />
<path d="M264.3424 192.9284
L264.2710 192.9998
" />
<path d="M264.2710 192.9998
L264.1281 193.0712
" />
<path d="M264.1281 193.0712
L263.5567 193.0712
" />
<path d="M265.6281 193.7141
L265.4853 193.7855
" />
<path d="M265.4853 193.7855
L265.1996 193.7855
" />
<path d="M265.1996 193.7855
L265.0567 193.7141
" />
<path d="M265.0567 193.7141
L264.9853 193.5712
" />
<path d="M264.9853 193.5712
L264.9853 192.9998
" />
<path d="M264.9853 192.9998
L265.0567 192.8570
" />
<path d="M265.0567 192.8570
L265.1996 192.7855
" />
<path d="M265.1996 192.7855
L265.4853 192.7855
" />
<path d="M265.4853 192.7855
L265.6281 192.8570
" />
<path d="M265.6281 192.8570
L265.6996 192.9998
" />
<path d="M265.6996 192.9998
L265.6996 193.1427
" />
<path d="M265.6996 193.1427
L264.9853 193.2855
" />
<path d="M266.1996 192.7855
L266.5567 193.7855
" />
<path d="M266.5567 193.7855
L266.9139 192.7855
" />
<path d="M267.4853 193.6427
L267.5567 193.7141
" />
<path d="M267.5567 193.7141
L267.4853 193.7855
" />
<path d="M267.4853 193.7855
L267.4139 193.7141
" />
<path d="M267.4139 193.7141
L267.4853 193.6427
" />
<path d="M267.4853 193.6427
L267.4853 193.7855
" />
<path d="M267.4853 192.8570
L267.5567 192.9284
" />
<path d="M267.5567 192.9284
L267.4853 192.9998
" />
<path d="M267.4853 192.9998
L267.4139 192.9284
" />
<path d="M267.4139 192.9284
L267.4853 192.8570
" />
<path d="M267.4853 192.8570
L267.4853 192.9998
" />
</g></g>
<g style="fill:none; 
stroke:#C872AB; stroke-width:0.1500; stroke-opacity:1; 
stroke-linecap:round; stroke-linejoin:round;">
<text x="178.0022" y="193.8572"
textLength="9.3643" font-size="2.0000" lengthAdjust="spacingAndGlyphs"
text-anchor="start" opacity="0" stroke-opacity="0">Size: A4</text>
<g class="stroked-text"><desc>Size: A4</desc>
<path d="M178.3866 193.7219
L178.6009 193.7933
" />
<path d="M178.6009 193.7933
L178.9580 193.7933
" />
<path d="M178.9580 193.7933
L179.1009 193.7219
" />
<path d="M179.1009 193.7219
L179.1723 193.6505
" />
<path d="M179.1723 193.6505
L179.2437 193.5076
" />
<path d="M179.2437 193.5076
L179.2437 193.3648
" />
<path d="M179.2437 193.3648
L179.1723 193.2219
" />
<path d="M179.1723 193.2219
L179.1009 193.1505
" />
<path d="M179.1009 193.1505
L178.9580 193.0790
" />
<path d="M178.9580 193.0790
L178.6723 193.0076
" />
<path d="M178.6723 193.0076
L178.5295 192.9362
" />
<path d="M178.5295 192.9362
L178.4580 192.8648
" />
<path d="M178.4580 192.8648
L178.3866 192.7219
" />
<path d="M178.3866 192.7219
L178.3866 192.5790
" />
<path d="M178.3866 192.5790
L178.4580 192.4362
" />
<path d="M178.4580 192.4362
L178.5295 192.3648
" />
<path d="M178.5295 192.3648
L178.6723 192.2933
" />
<path d="M178.6723 192.2933
L179.0295 192.2933
" />
<path d="M179.0295 192.2933
L179.2437 192.3648
" />
<path d="M179.8866 193.7933
L179.8866 192.7933
" />
<path d="M179.8866 192.2933
L179.8152 192.3648
" />
<path d="M179.8152 192.3648
L179.8866 192.4362
" />
<path d="M179.8866 192.4362
L179.9580 192.3648
" />
<path d="M179.9580 192.3648
L179.8866 192.2933
" />
<path d="M179.8866 192.2933
L179.8866 192.4362
" />
<path d="M180.4580 192.7933
L181.2437 192.7933
" />
<path d="M181.2437 192.7933
L180.4580 193.7933
" />
<path d="M180.4580 193.7933
L181.2437 193.7933
" />
<path d="M182.3866 193.7219
L182.2437 193.7933
" />
<path d="M182.2437 193.7933
L181.9580 193.7933
" />
<path d="M181.9580 193.7933
L181.8152 193.7219
" />
<path d="M181.8152 193.7219
L181.7437 193.5790
" />
<path d="M181.7437 193.5790
L181.7437 193.0076
" />
<path d="M181.7437 193.0076
L181.8152 192.8648
" />
<path d="M181.8152 192.8648
L181.9580 192.7933
" />
<path d="M181.9580 192.7933
L182.2437 192.7933
" />
<path d="M182.2437 192.7933
L182.3866 192.8648
" />
<path d="M182.3866 192.8648
L182.4580 193.0076
" />
<path d="M182.4580 193.0076
L182.4580 193.1505
" />
<path d="M182.4580 193.1505
L181.7437 193.2933
" />
<path d="M183.1009 193.6505
L183.1723 193.7219
" />
<path d="M183.1723 193.7219
L183.1009 193.7933
" />
<path d="M183.1009 193.7933
L183.0295 193.7219
" />
<path d="M183.0295 193.7219
L183.1009 193.6505
" />
<path d="M183.1009 193.6505
L183.1009 193.7933
" />
<path d="M183.1009 192.8648
L183.1723 192.9362
" />
<path d="M183.1723 192.9362
L183.1009 193.0076
" />
<path d="M183.1009 193.0076
L183.0295 192.9362
" />
<path d="M183.0295 192.9362
L183.1009 192.8648
" />
<path d="M183.1009 192.8648
L183.1009 193.0076
" />
<path d="M184.8866 193.3648
L185.6009 193.3648
" />
<path d="M184.7437 193.7933
L185.2437 192.2933
" />
<path d="M185.2437 192.2933
L185.7437 193.7933
" />
<path d="M186.8866 192.7933
L186.8866 193.7933
" />
<path d="M186.5295 192.2219
L186.1723 193.2933
" />
<path d="M186.1723 193.2933
L187.1009 193.2933
" />
</g></g>
<g style="fill:none; 
stroke:#C872AB; stroke-width:0.1500; stroke-opacity:1; 
stroke-linecap:round; stroke-linejoin:round;">
<text x="263.0022" y="196.6572"
textLength="8.5071" font-size="2.0000" lengthAdjust="spacingAndGlyphs"
text-anchor="start" opacity="0" stroke-opacity="0">Id: 1/1</text>
<g class="stroked-text"><desc>Id: 1/1</desc>
<path d="M263.4580 196.5933
L263.4580 195.0933
" />
<path d="M264.8152 196.5933
L264.8152 195.0933
" />
<path d="M264.8152 196.5219
L264.6723 196.5933
" />
<path d="M264.6723 196.5933
L264.3866 196.5933
" />
<path d="M264.3866 196.5933
L264.2437 196.5219
" />
<path d="M264.2437 196.5219
L264.1723 196.4505
" />
<path d="M264.1723 196.4505
L264.1009 196.3076
" />
<path d="M264.1009 196.3076
L264.1009 195.8790
" />
<path d="M264.1009 195.8790
L264.1723 195.7362
" />
<path d="M264.1723 195.7362
L264.2437 195.6648
" />
<path d="M264.2437 195.6648
L264.3866 195.5933
" />
<path d="M264.3866 195.5933
L264.6723 195.5933
" />
<path d="M264.6723 195.5933
L264.8152 195.6648
" />
<path d="M265.5295 196.4505
L265.6009 196.5219
" />
<path d="M265.6009 196.5219
L265.5295 196.5933
" />
<path d="M265.5295 196.5933
L265.4580 196.5219
" />
<path d="M265.4580 196.5219
L265.5295 196.4505
" />
<path d="M265.5295 196.4505
L265.5295 196.5933
" />
<path d="M265.5295 195.6648
L265.6009 195.7362
" />
<path d="M265.6009 195.7362
L265.5295 195.8076
" />
<path d="M265.5295 195.8076
L265.4580 195.7362
" />
<path d="M265.4580 195.7362
L265.5295 195.6648
" />
<path d="M265.5295 195.6648
L265.5295 195.8076
" />
<path d="M268.1723 196.5933
L267.3152 196.5933
" />
<path d="M267.7437 196.5933
L267.7437 195.0933
" />
<path d="M267.7437 195.0933
L267.6009 195.3076
" />
<path d="M267.6009 195.3076
L267.4580 195.4505
" />
<path d="M267.4580 195.4505
L267.3152 195.5219
" />
<path d="M269.8866 195.0219
L268.6009 196.9505
" />
<path d="M271.1723 196.5933
L270.3152 196.5933
" />
<path d="M270.7437 196.5933
L270.7437 195.0933
" />
<path d="M270.7437 195.0933
L270.6009 195.3076
" />
<path d="M270.6009 195.3076
L270.4580 195.4505
" />
<path d="M270.4580 195.4505
L270.3152 195.5219
" />
</g></g>
<g style="fill:none; 
stroke:#C872AB; stroke-width:0.1500; stroke-opacity:1; 
stroke-linecap:round; stroke-linejoin:round;">
<path d="M177.0022 187.5072
L285.0022 187.5072
" />
</g>
<g style="fill:none; 
stroke:#C872AB; stroke-width:0.4000; stroke-opacity:1; 
stroke-linecap:round; stroke-linejoin:round;">
<text x="178.0022" y="190.3072"
textLength="9.6571" font-size="2.6667" lengthAdjust="spacingAndGlyphs"
text-anchor="start" opacity="0" stroke-opacity="0">Title: </text>
<g class="stroked-text"><desc>Title: </desc>
<path d="M178.6939 188.2116
L179.8368 188.2116
" />
<path d="M179.0154 190.2116
L179.2654 188.2116
" />
<path d="M180.2535 190.2116
L180.4201 188.8783
" />
<path d="M180.5035 188.2116
L180.3963 188.3069
" />
<path d="M180.3963 188.3069
L180.4796 188.4021
" />
<path d="M180.4796 188.4021
L180.5868 188.3069
" />
<path d="M180.5868 188.3069
L180.5035 188.2116
" />
<path d="M180.5035 188.2116
L180.4796 188.4021
" />
<path d="M181.0868 188.8783
L181.8487 188.8783
" />
<path d="M181.4558 188.2116
L181.2415 189.9259
" />
<path d="M181.2415 189.9259
L181.3130 190.1164
" />
<path d="M181.3130 190.1164
L181.4915 190.2116
" />
<path d="M181.4915 190.2116
L181.6820 190.2116
" />
<path d="M182.6344 190.2116
L182.4558 190.1164
" />
<path d="M182.4558 190.1164
L182.3844 189.9259
" />
<path d="M182.3844 189.9259
L182.5987 188.2116
" />
<path d="M184.1701 190.1164
L183.9677 190.2116
" />
<path d="M183.9677 190.2116
L183.5868 190.2116
" />
<path d="M183.5868 190.2116
L183.4082 190.1164
" />
<path d="M183.4082 190.1164
L183.3368 189.9259
" />
<path d="M183.3368 189.9259
L183.4320 189.1640
" />
<path d="M183.4320 189.1640
L183.5511 188.9735
" />
<path d="M183.5511 188.9735
L183.7535 188.8783
" />
<path d="M183.7535 188.8783
L184.1344 188.8783
" />
<path d="M184.1344 188.8783
L184.3130 188.9735
" />
<path d="M184.3130 188.9735
L184.3844 189.1640
" />
<path d="M184.3844 189.1640
L184.3606 189.3545
" />
<path d="M184.3606 189.3545
L183.3844 189.5450
" />
<path d="M185.1344 190.0212
L185.2177 190.1164
" />
<path d="M185.2177 190.1164
L185.1106 190.2116
" />
<path d="M185.1106 190.2116
L185.0273 190.1164
" />
<path d="M185.0273 190.1164
L185.1344 190.0212
" />
<path d="M185.1344 190.0212
L185.1106 190.2116
" />
<path d="M185.2654 188.9735
L185.3487 189.0688
" />
<path d="M185.3487 189.0688
L185.2415 189.1640
" />
<path d="M185.2415 189.1640
L185.1582 189.0688
" />
<path d="M185.1582 189.0688
L185.2654 188.9735
" />
<path d="M185.2654 188.9735
L185.2415 189.1640
" />
</g></g>
<g style="fill:none; 
stroke:#C872AB; stroke-width:0.1500; stroke-opacity:1; 
stroke-linecap:round; stroke-linejoin:round;">
<text x="178.0022" y="186.4572"
textLength="34.7929" font-size="2.0000" lengthAdjust="spacingAndGlyphs"
text-anchor="start" opacity="0" stroke-opacity="0">File: sample_project.kicad_pcb</text>
<g class="stroked-text"><desc>File: sample_project.kicad_pcb</desc>
<path d="M178.9580 185.6076
L178.4580 185.6076
" />
<path d="M178.4580 186.3933
L178.4580 184.8933
" />
<path d="M178.4580 184.8933
L179.1723 184.8933
" />
<path d="M179.7437 186.3933
L179.7437 185.3933
" />
<path d="M179.7437 184.8933
L179.6723 184.9648
" />
<path d="M179.6723 184.9648
L179.7437 185.0362
" />
<path d="M179.7437 185.0362
L179.8152 184.9648
" />
<path d="M179.8152 184.9648
L179.7437 184.8933
" />
<path d="M179.7437 184.8933
L179.7437 185.0362
" />
<path d="M180.6723 186.3933
L180.5295 186.3219
" />
<path d="M180.5295 186.3219
L180.4580 186.1790
" />
<path d="M180.4580 186.1790
L180.4580 184.8933
" />
<path d="M181.8152 186.3219
L181.6723 186.3933
" />
<path d="M181.6723 186.3933
L181.3866 186.3933
" />
<path d="M181.3866 186.3933
L181.2437 186.3219
" />
<path d="M181.2437 186.3219
L181.1723 186.1790
" />
<path d="M181.1723 186.1790
L181.1723 185.6076
" />
<path d="M181.1723 185.6076
L181.2437 185.4648
" />
<path d="M181.2437 185.4648
L181.3866 185.3933
" />
<path d="M181.3866 185.3933
L181.6723 185.3933
" />
<path d="M181.6723 185.3933
L181.8152 185.4648
" />
<path d="M181.8152 185.4648
L181.8866 185.6076
" />
<path d="M181.8866 185.6076
L181.8866 185.7505
" />
<path d="M181.8866 185.7505
L181.1723 185.8933
" />
<path d="M182.5295 186.2505
L182.6009 186.3219
" />
<path d="M182.6009 186.3219
L182.5295 186.3933
" />
<path d="M182.5295 186.3933
L182.4580 186.3219
" />
<path d="M182.4580 186.3219
L182.5295 186.2505
" />
<path d="M182.5295 186.2505
L182.5295 186.3933
" />
<path d="M182.5295 185.4648
L182.6009 185.5362
" />
<path d="M182.6009 185.5362
L182.5295 185.6076
" />
<path d="M182.5295 185.6076
L182.4580 185.5362
" />
<path d="M182.4580 185.5362
L182.5295 185.4648
" />
<path d="M182.5295 185.4648
L182.5295 185.6076
" />
<path d="M184.3152 186.3219
L184.4580 186.3933
" />
<path d="M184.4580 186.3933
L184.7437 186.3933
" />
<path d="M184.7437 186.3933
L184.8866 186.3219
" />
<path d="M184.8866 186.3219
L184.9580 186.1790
" />
<path d="M184.9580 186.1790
L184.9580 186.1076
" />
<path d="M184.9580 186.1076
L184.8866 185.9648
" />
<path d="M184.8866 185.9648
L184.7437 185.8933
" />
<path d="M184.7437 185.8933
L184.5295 185.8933
" />
<path d="M184.5295 185.8933
L184.3866 185.8219
" />
<path d="M184.3866 185.8219
L184.3152 185.6790
" />
<path d="M184.3152 185.6790
L184.3152 185.6076
" />
<path d="M184.3152 185.6076
L184.3866 185.4648
" />
<path d="M184.3866 185.4648
L184.5295 185.3933
" />
<path d="M184.5295 185.3933
L184.7437 185.3933
" />
<path d="M184.7437 185.3933
L184.8866 185.4648
" />
<path d="M186.2437 186.3933
L186.2437 185.6076
" />
<path d="M186.2437 185.6076
L186.1723 185.4648
" />
<path d="M186.1723 185.4648
L186.0295 185.3933
" />
<path d="M186.0295 185.3933
L185.7437 185.3933
" />
<path d="M185.7437 185.3933
L185.6009 185.4648
" />
<path d="M186.2437 186.3219
L186.1009 186.3933
" />
<path d="M186.1009 186.3933
L185.7437 186.3933
" />
<path d="M185.7437 186.3933
L185.6009 186.3219
" />
<path d="M185.6009 186.3219
L185.5295 186.1790
" />
<path d="M185.5295 186.1790
L185.5295 186.0362
" />
<path d="M185.5295 186.0362
L185.6009 185.8933
" />
<path d="M185.6009 185.8933
L185.7437 185.8219
" />
<path d="M185.7437 185.8219
L186.1009 185.8219
" />
<path d="M186.1009 185.8219
L186.2437 185.7505
" />
<path d="M186.9580 186.3933
L186.9580 185.3933
" />
<path d="M186.9580 185.5362
L187.0295 185.4648
" />
<path d="M187.0295 185.4648
L187.1723 185.3933
" />
<path d="M187.1723 185.3933
L187.3866 185.3933
" />
<path d="M187.3866 185.3933
L187.5295 185.4648
" />
<path d="M187.5295 185.4648
L187.6009 185.6076
" />
<path d="M187.6009 185.6076
L187.6009 186.3933
" />
<path d="M187.6009 185.6076
L187.6723 185.4648
" />
<path d="M187.6723 185.4648
L187.8152 185.3933
" />
<path d="M187.8152 185.3933
L188.0295 185.3933
" />
<path d="M188.0295 185.3933
L188.1723 185.4648
" />
<path d="M188.1723 185.4648
L188.2437 185.6076
" />
<path d="M188.2437 185.6076
L188.2437 186.3933
" />
<path d="M188.9580 185.3933
L188.9580 186.8933
" />
<path d="M188.9580 185.4648
L189.1009 185.3933
" />
<path d="M189.1009 185.3933
L189.3866 185.3933
" />
<path d="M189.3866 185.3933
L189.5295 185.4648
" />
<path d="M189.5295 185.4648
L189.6009 185.5362
" />
<path d="M189.6009 185.5362
L189.6723 185.6790
" />
<path d="M189.6723 185.6790
L189.6723 186.1076
" />
<path d="M189.6723 186.1076
L189.6009 186.2505
" />
<path d="M189.6009 186.2505
L189.5295 186.3219
" />
<path d="M189.5295 186.3219
L189.3866 186.3933
" />
<path d="M189.3866 186.3933
L189.1009 186.3933
" />
<path d="M189.1009 186.3933
L188.9580 186.3219
" />
<path d="M190.5295 186.3933
L190.3866 186.3219
" />
<path d="M190.3866 186.3219
L190.3152 186.1790
" />
<path d="M190.3152 186.1790
L190.3152 184.8933
" />
<path d="M191.6723 186.3219
L191.5295 186.3933
" />
<path d="M191.5295 186.3933
L191.2437 186.3933
" />
<path d="M191.2437 186.3933
L191.1009 186.3219
" />
<path d="M191.1009 186.3219
L191.0295 186.1790
" />
<path d="M191.0295 186.1790
L191.0295 185.6076
" />
<path d="M191.0295 185.6076
L191.1009 185.4648
" />
<path d="M191.1009 185.4648
L191.2437 185.3933
" />
<path d="M191.2437 185.3933
L191.5295 185.3933
" />
<path d="M191.5295 185.3933
L191.6723 185.4648
" />
<path d="M191.6723 185.4648
L191.7437 185.6076
" />
<path d="M191.7437 185.6076
L191.7437 185.7505
" />
<path d="M191.7437 185.7505
L191.0295 185.8933
" />
<path d="M192.0295 186.5362
L193.1723 186.5362
" />
<path d="M193.5295 185.3933
L193.5295 186.8933
" />
<path d="M193.5295 185.4648
L193.6723 185.3933
" />
<path d="M193.6723 185.3933
L193.9580 185.3933
" />
<path d="M193.9580 185.3933
L194.1009 185.4648
" />
<path d="M194.1009 185.4648
L194.1723 185.5362
" />
<path d="M194.1723 185.5362
L194.2437 185.6790
" />
<path d="M194.2437 185.6790
L194.2437 186.1076
" />
<path d="M194.2437 186.1076
L194.1723 186.2505
" />
<path d="M194.1723 186.2505
L194.1009 186.3219
" />
<path d="M194.1009 186.3219
L193.9580 186.3933
" />
<path d="M193.9580 186.3933
L193.6723 186.3933
" />
<path d="M193.6723 186.3933
L193.5295 186.3219
" />
<path d="M194.8866 186.3933
L194.8866 185.3933
" />
<path d="M194.8866 185.6790
L194.9580 185.5362
" />
<path d="M194.9580 185.5362
L195.0295 185.4648
" />
<path d="M195.0295 185.4648
L195.1723 185.3933
" />
<path d="M195.1723 185.3933
L195.3152 185.3933
" />
<path d="M196.0295 186.3933
L195.8866 186.3219
" />
<path d="M195.8866 186.3219
L195.8152 186.2505
" />
<path d="M195.8152 186.2505
L195.7437 186.1076
" />
<path d="M195.7437 186.1076
L195.7437 185.6790
" />
<path d="M195.7437 185.6790
L195.8152 185.5362
" />
<path d="M195.8152 185.5362
L195.8866 185.4648
" />
<path d="M195.8866 185.4648
L196.0295 185.3933
" />
<path d="M196.0295 185.3933
L196.2437 185.3933
" />
<path d="M196.2437 185.3933
L196.3866 185.4648
" />
<path d="M196.3866 185.4648
L196.4580 185.5362
" />
<path d="M196.4580 185.5362
L196.5295 185.6790
" />
<path d="M196.5295 185.6790
L196.5295 186.1076
" />
<path d="M196.5295 186.1076
L196.4580 186.2505
" />
<path d="M196.4580 186.2505
L196.3866 186.3219
" />
<path d="M196.3866 186.3219
L196.2437 186.3933
" />
<path d="M196.2437 186.3933
L196.0295 186.3933
" />
<path d="M197.1723 185.3933
L197.1723 186.6790
" />
<path d="M197.1723 186.6790
L197.1009 186.8219
" />
<path d="M197.1009 186.8219
L196.9580 186.8933
" />
<path d="M196.9580 186.8933
L196.8866 186.8933
" />
<path d="M197.1723 184.8933
L197.1009 184.9648
" />
<path d="M197.1009 184.9648
L197.1723 185.0362
" />
<path d="M197.1723 185.0362
L197.2437 184.9648
" />
<path d="M197.2437 184.9648
L197.1723 184.8933
" />
<path d="M197.1723 184.8933
L197.1723 185.0362
" />
<path d="M198.4580 186.3219
L198.3152 186.3933
" />
<path d="M198.3152 186.3933
L198.0295 186.3933
" />
<path d="M198.0295 186.3933
L197.8866 186.3219
" />
<path d="M197.8866 186.3219
L197.8152 186.1790
" />
<path d="M197.8152 186.1790
L197.8152 185.6076
" />
<path d="M197.8152 185.6076
L197.8866 185.4648
" />
<path d="M197.8866 185.4648
L198.0295 185.3933
" />
<path d="M198.0295 185.3933
L198.3152 185.3933
" />
<path d="M198.3152 185.3933
L198.4580 185.4648
" />
<path d="M198.4580 185.4648
L198.5295 185.6076
" />
<path d="M198.5295 185.6076
L198.5295 185.7505
" />
<path d="M198.5295 185.7505
L197.8152 185.8933
" />
<path d="M199.8152 186.3219
L199.6723 186.3933
" />
<path d="M199.6723 186.3933
L199.3866 186.3933
" />
<path d="M199.3866 186.3933
L199.2437 186.3219
" />
<path d="M199.2437 186.3219
L199.1723 186.2505
" />
<path d="M199.1723 186.2505
L199.1009 186.1076
" />
<path d="M199.1009 186.1076
L199.1009 185.6790
" />
<path d="M199.1009 185.6790
L199.1723 185.5362
" />
<path d="M199.1723 185.5362
L199.2437 185.4648
" />
<path d="M199.2437 185.4648
L199.3866 185.3933
" />
<path d="M199.3866 185.3933
L199.6723 185.3933
" />
<path d="M199.6723 185.3933
L199.8152 185.4648
" />
<path d="M200.2437 185.3933
L200.8152 185.3933
" />
<path d="M200.4580 184.8933
L200.4580 186.1790
" />
<path d="M200.4580 186.1790
L200.5295 186.3219
" />
<path d="M200.5295 186.3219
L200.6723 186.3933
" />
<path d="M200.6723 186.3933
L200.8152 186.3933
" />
<path d="M201.3152 186.2505
L201.3866 186.3219
" />
<path d="M201.3866 186.3219
L201.3152 186.3933
" />
<path d="M201.3152 186.3933
L201.2437 186.3219
" />
<path d="M201.2437 186.3219
L201.3152 186.2505
" />
<path d="M201.3152 186.2505
L201.3152 186.3933
" />
<path d="M202.0295 186.3933
L202.0295 184.8933
" />
<path d="M202.1723 185.8219
L202.6009 186.3933
" />
<path d="M202.6009 185.3933
L202.0295 185.9648
" />
<path d="M203.2437 186.3933
L203.2437 185.3933
" />
<path d="M203.2437 184.8933
L203.1723 184.9648
" />
<path d="M203.1723 184.9648
L203.2437 185.0362
" />
<path d="M203.2437 185.0362
L203.3152 184.9648
" />
<path d="M203.3152 184.9648
L203.2437 184.8933
" />
<path d="M203.2437 184.8933
L203.2437 185.0362
" />
<path d="M204.6009 186.3219
L204.4580 186.3933
" />
<path d="M204.4580 186.3933
L204.1723 186.3933
" />
<path d="M204.1723 186.3933
L204.0295 186.3219
" />
<path d="M204.0295 186.3219
L203.9580 186.2505
" />
<path d="M203.9580 186.2505
L203.8866 186.1076
" />
<path d="M203.8866 186.1076
L203.8866 185.6790
" />
<path d="M203.8866 185.6790
L203.9580 185.5362
" />
<path d="M203.9580 185.5362
L204.0295 185.4648
" />
<path d="M204.0295 185.4648
L204.1723 185.3933
" />
<path d="M204.1723 185.3933
L204.4580 185.3933
" />
<path d="M204.4580 185.3933
L204.6009 185.4648
" />
<path d="M205.8866 186.3933
L205.8866 185.6076
" />
<path d="M205.8866 185.6076
L205.8152 185.4648
" />
<path d="M205.8152 185.4648
L205.6723 185.3933
" />
<path d="M205.6723 185.3933
L205.3866 185.3933
" />
<path d="M205.3866 185.3933
L205.2437 185.4648
" />
<path d="M205.8866 186.3219
L205.7437 186.3933
" />
<path d="M205.7437 186.3933
L205.3866 186.3933
" />
<path d="M205.3866 186.3933
L205.2437 186.3219
" />
<path d="M205.2437 186.3219
L205.1723 186.1790
" />
<path d="M205.1723 186.1790
L205.1723 186.0362
" />
<path d="M205.1723 186.0362
L205.2437 185.8933
" />
<path d="M205.2437 185.8933
L205.3866 185.8219
" />
<path d="M205.3866 185.8219
L205.7437 185.8219
" />
<path d="M205.7437 185.8219
L205.8866 185.7505
" />
<path d="M207.2437 186.3933
L207.2437 184.8933
" />
<path d="M207.2437 186.3219
L207.1009 186.3933
" />
<path d="M207.1009 186.3933
L206.8152 186.3933
" />
<path d="M206.8152 186.3933
L206.6723 186.3219
" />
<path d="M206.6723 186.3219
L206.6009 186.2505
" />
<path d="M206.6009 186.2505
L206.5295 186.1076
" />
<path d="M206.5295 186.1076
L206.5295 185.6790
" />
<path d="M206.5295 185.6790
L206.6009 185.5362
" />
<path d="M206.6009 185.5362
L206.6723 185.4648
" />
<path d="M206.6723 185.4648
L206.8152 185.3933
" />
<path d="M206.8152 185.3933
L207.1009 185.3933
" />
<path d="M207.1009 185.3933
L207.2437 185.4648
" />
<path d="M207.6009 186.5362
L208.7437 186.5362
" />
<path d="M209.1009 185.3933
L209.1009 186.8933
" />
<path d="M209.1009 185.4648
L209.2437 185.3933
" />
<path d="M209.2437 185.3933
L209.5295 185.3933
" />
<path d="M209.5295 185.3933
L209.6723 185.4648
" />
<path d="M209.6723 185.4648
L209.7437 185.5362
" />
<path d="M209.7437 185.5362
L209.8152 185.6790
" />
<path d="M209.8152 185.6790
L209.8152 186.1076
" />
<path d="M209.8152 186.1076
L209.7437 186.2505
" />
<path d="M209.7437 186.2505
L209.6723 186.3219
" />
<path d="M209.6723 186.3219
L209.5295 186.3933
" />
<path d="M209.5295 186.3933
L209.2437 186.3933
" />
<path d="M209.2437 186.3933
L209.1009 186.3219
" />
<path d="M211.1009 186.3219
L210.9580 186.3933
" />
<path d="M210.9580 186.3933
L210.6723 186.3933
" />
<path d="M210.6723 186.3933
L210.5295 186.3219
" />
<path d="M210.5295 186.3219
L210.4580 186.2505
" />
<path d="M210.4580 186.2505
L210.3866 186.1076
" />
<path d="M210.3866 186.1076
L210.3866 185.6790
" />
<path d="M210.3866 185.6790
L210.4580 185.5362
" />
<path d="M210.4580 185.5362
L210.5295 185.4648
" />
<path d="M210.5295 185.4648
L210.6723 185.3933
" />
<path d="M210.6723 185.3933
L210.9580 185.3933
" />
<path d="M210.9580 185.3933
L211.1009 185.4648
" />
<path d="M211.7437 186.3933
L211.7437 184.8933
" />
<path d="M211.7437 185.4648
L211.8866 185.3933
" />
<path d="M211.8866 185.3933
L212.1723 185.3933
" />
<path d="M212.1723 185.3933
L212.3152 185.4648
" />
<path d="M212.3152 185.4648
L212.3866 185.5362
" />
<path d="M212.3866 185.5362
L212.4580 185.6790
" />
<path d="M212.4580 185.6790
L212.4580 186.1076
" />
<path d="M212.4580 186.1076
L212.3866 186.2505
" />
<path d="M212.3866 186.2505
L212.3152 186.3219
" />
<path d="M212.3152 186.3219
L212.1723 186.3933
" />
<path d="M212.1723 186.3933
L211.8866 186.3933
" />
<path d="M211.8866 186.3933
L211.7437 186.3219
" />
</g></g>
<g style="fill:none; 
stroke:#C872AB; stroke-width:0.1500; stroke-opacity:1; 
stroke-linecap:round; stroke-linejoin:round;">
<path d="M177.0022 181.5072
L285.0022 181.5072
" />
</g>
<g style="fill:none; 
stroke:#C872AB; stroke-width:0.1500; stroke-opacity:1; 
stroke-linecap:round; stroke-linejoin:round;">
<text x="178.0022" y="183.7572"
textLength="8.2214" font-size="2.0000" lengthAdjust="spacingAndGlyphs"
text-anchor="start" opacity="0" stroke-opacity="0">Sheet: </text>
<g class="stroked-text"><desc>Sheet: </desc>
<path d="M178.3866 183.6219
L178.6009 183.6933
" />
<path d="M178.6009 183.6933
L178.9580 183.6933
" />
<path d="M178.9580 183.6933
L179.1009 183.6219
" />
<path d="M179.1009 183.6219
L179.1723 183.5505
" />
<path d="M179.1723 183.5505
L179.2437 183.4076
" />
<path d="M179.2437 183.4076
L179.2437 183.2648
" />
<path d="M179.2437 183.2648
L179.1723 183.1219
" />
<path d="M179.1723 183.1219
L179.1009 183.0505
" />
<path d="M179.1009 183.0505
L178.9580 182.9790
" />
<path d="M178.9580 182.9790
L178.6723 182.9076
" />
<path d="M178.6723 182.9076
L178.5295 182.8362
" />
<path d="M178.5295 182.8362
L178.4580 182.7648
" />
<path d="M178.4580 182.7648
L178.3866 182.6219
" />
<path d="M178.3866 182.6219
L178.3866 182.4790
" />
<path d="M178.3866 182.4790
L178.4580 182.3362
" />
<path d="M178.4580 182.3362
L178.5295 182.2648
" />
<path d="M178.5295 182.2648
L178.6723 182.1933
" />
<path d="M178.6723 182.1933
L179.0295 182.1933
" />
<path d="M179.0295 182.1933
L179.2437 182.2648
" />
<path d="M179.8866 183.6933
L179.8866 182.1933
" />
<path d="M180.5295 183.6933
L180.5295 182.9076
" />
<path d="M180.5295 182.9076
L180.4580 182.7648
" />
<path d="M180.4580 182.7648
L180.3152 182.6933
" />
<path d="M180.3152 182.6933
L180.1009 182.6933
" />
<path d="M180.1009 182.6933
L179.9580 182.7648
" />
<path d="M179.9580 182.7648
L179.8866 182.8362
" />
<path d="M181.8152 183.6219
L181.6723 183.6933
" />
<path d="M181.6723 183.6933
L181.3866 183.6933
" />
<path d="M181.3866 183.6933
L181.2437 183.6219
" />
<path d="M181.2437 183.6219
L181.1723 183.4790
" />
<path d="M181.1723 183.4790
L181.1723 182.9076
" />
<path d="M181.1723 182.9076
L181.2437 182.7648
" />
<path d="M181.2437 182.7648
L181.3866 182.6933
" />
<path d="M181.3866 182.6933
L181.6723 182.6933
" />
<path d="M181.6723 182.6933
L181.8152 182.7648
" />
<path d="M181.8152 182.7648
L181.8866 182.9076
" />
<path d="M181.8866 182.9076
L181.8866 183.0505
" />
<path d="M181.8866 183.0505
L181.1723 183.1933
" />
<path d="M183.1009 183.6219
L182.9580 183.6933
" />
<path d="M182.9580 183.6933
L182.6723 183.6933
" />
<path d="M182.6723 183.6933
L182.5295 183.6219
" />
<path d="M182.5295 183.6219
L182.4580 183.4790
" />
<path d="M182.4580 183.4790
L182.4580 182.9076
" />
<path d="M182.4580 182.9076
L182.5295 182.7648
" />
<path d="M182.5295 182.7648
L182.6723 182.6933
" />
<path d="M182.6723 182.6933
L182.9580 182.6933
" />
<path d="M182.9580 182.6933
L183.1009 182.7648
" />
<path d="M183.1009 182.7648
L183.1723 182.9076
" />
<path d="M183.1723 182.9076
L183.1723 183.0505
" />
<path d="M183.1723 183.0505
L182.4580 183.1933
" />
<path d="M183.6009 182.6933
L184.1723 182.6933
" />
<path d="M183.8152 182.1933
L183.8152 183.4790
" />
<path d="M183.8152 183.4790
L183.8866 183.6219
" />
<path d="M183.8866 183.6219
L184.0295 183.6933
" />
<path d="M184.0295 183.6933
L184.1723 183.6933
" />
<path d="M184.6723 183.5505
L184.7437 183.6219
" />
<path d="M184.7437 183.6219
L184.6723 183.6933
" />
<path d="M184.6723 183.6933
L184.6009 183.6219
" />
<path d="M184.6009 183.6219
L184.6723 183.5505
" />
<path d="M184.6723 183.5505
L184.6723 183.6933
" />
<path d="M184.6723 182.7648
L184.7437 182.8362
" />
<path d="M184.7437 182.8362
L184.6723 182.9076
" />
<path d="M184.6723 182.9076
L184.6009 182.8362
" />
<path d="M184.6009 182.8362
L184.6723 182.7648
" />
<path d="M184.6723 182.7648
L184.6723 182.9076
" />
</g></g>
<g style="fill:none; 
stroke:#C872AB; stroke-width:0.3000; stroke-opacity:1; 
stroke-linecap:round; stroke-linejoin:round;">
<text x="178.0022" y="180.7572"
textLength="0.9000" font-size="2.0000" lengthAdjust="spacingAndGlyphs"
text-anchor="start" opacity="0" stroke-opacity="0"></text>
<g class="stroked-text"><desc></desc>
</g></g>
<g style="fill:none; 
stroke:#C872AB; stroke-width:0.1500; stroke-opacity:1; 
stroke-linecap:round; stroke-linejoin:round;">
<text x="178.0022" y="177.7572"
textLength="0.4500" font-size="2.0000" lengthAdjust="spacingAndGlyphs"
text-anchor="start" opacity="0" stroke-opacity="0"></text>
<g class="stroked-text"><desc></desc>
</g></g>
<g style="fill:none; 
stroke:#C872AB; stroke-width:0.1500; stroke-opacity:1; 
stroke-linecap:round; stroke-linejoin:round;">
<text x="178.0022" y="174.7572"
textLength="0.4500" font-size="2.0000" lengthAdjust="spacingAndGlyphs"
text-anchor="start" opacity="0" stroke-opacity="0"></text>
<g class="stroked-text"><desc></desc>
</g></g>
<g style="fill:none; 
stroke:#C872AB; stroke-width:0.1500; stroke-opacity:1; 
stroke-linecap:round; stroke-linejoin:round;">
<text x="178.0022" y="171.7572"
textLength="0.4500" font-size="2.0000" lengthAdjust="spacingAndGlyphs"
text-anchor="start" opacity="0" stroke-opacity="0"></text>
<g class="stroked-text"><desc></desc>
</g></g>
<g style="fill:none; 
stroke:#C872AB; stroke-width:0.1500; stroke-opacity:1; 
stroke-linecap:round; stroke-linejoin:round;">
<text x="178.0022" y="168.7572"
textLength="0.4500" font-size="2.0000" lengthAdjust="spacingAndGlyphs"
text-anchor="start" opacity="0" stroke-opacity="0"></text>
<g class="stroked-text"><desc></desc>
</g></g>
<g style="fill:none; 
stroke:#C872AB; stroke-width:0.1500; stroke-opacity:1; 
stroke-linecap:round; stroke-linejoin:round;">
<path d="M197.0022 191.5072
L197.0022 194.5072
" />
</g>
<g style="fill:none; 
stroke:#C872AB; stroke-width:0.1500; stroke-opacity:1; 
stroke-linecap:round; stroke-linejoin:round;">
<path d="M261.0022 191.5072
L261.0022 198.0072
" />
<path style="fill:#C83434; fill-opacity:1.0000; stroke:none;fill-rule:evenodd;"
d="M 139.7937,113.2464
139.7005,113.2279
139.6214,113.1750
139.5686,113.0960
139.5500,113.0027
139.5500,112.5152
139.5686,112.4219
139.6214,112.3428
139.7005,112.2900
139.7937,112.2714
140.7062,112.2714
140.7995,112.2900
140.8786,112.3428
140.9314,112.4219
140.9500,112.5152
140.9500,113.0027
140.9314,113.0960
140.8786,113.1750
140.7995,113.2279
140.7062,113.2464
Z" /> 
<path style="fill:#C83434; fill-opacity:1.0000; stroke:none;fill-rule:evenodd;"
d="M 139.7937,111.3714
139.7005,111.3529
139.6214,111.3000
139.5686,111.2210
139.5500,111.1277
139.5500,110.6402
139.5686,110.5469
139.6214,110.4678
139.7005,110.4150
139.7937,110.3964
140.7062,110.3964
140.7995,110.4150
140.8786,110.4678
140.9314,110.5469
140.9500,110.6402
140.9500,111.1277
140.9314,111.2210
140.8786,111.3000
140.7995,111.3529
140.7062,111.3714
Z" /> 
<path style="fill:#C83434; fill-opacity:1.0000; stroke:none;fill-rule:evenodd;"
d="M 140.7000,103.3964
140.7957,103.4155
140.8768,103.4697
140.9310,103.5508
140.9500,103.6464
140.9500,104.1714
140.9310,104.2671
140.8768,104.3482
140.7957,104.4024
140.7000,104.4214
139.8000,104.4214
139.7043,104.4024
139.6232,104.3482
139.5690,104.2671
139.5500,104.1714
139.5500,103.6464
139.5690,103.5508
139.6232,103.4697
139.7043,103.4155
139.8000,103.3964
Z" /> 
<path style="fill:#C83434; fill-opacity:1.0000; stroke:none;fill-rule:evenodd;"
d="M 140.7000,105.2214
140.7957,105.2405
140.8768,105.2947
140.9310,105.3758
140.9500,105.4714
140.9500,105.9964
140.9310,106.0921
140.8768,106.1732
140.7957,106.2274
140.7000,106.2464
139.8000,106.2464
139.7043,106.2274
139.6232,106.1732
139.5690,106.0921
139.5500,105.9964
139.5500,105.4714
139.5690,105.3758
139.6232,105.2947
139.7043,105.2405
139.8000,105.2214
Z" /> 
<path style="fill:#C83434; fill-opacity:1.0000; stroke:none;fill-rule:evenodd;"
d="M 121.5500,95.4000
117.9500,95.4000
117.9500,92.8000
121.5500,92.8000
Z" /> 
<path style="fill:#C83434; fill-opacity:1.0000; stroke:none;fill-rule:evenodd;"
d="M 121.5500,124.7000
117.9500,124.7000
117.9500,122.1000
121.5500,122.1000
Z" /> 
</g>
<g style="fill:none; 
stroke:#C83434; stroke-width:0.6000; stroke-opacity:1; 
stroke-linecap:round; stroke-linejoin:round;">
<path d="M119.7500 123.4000
L129.6089 123.4000
" />
<path d="M129.6089 123.4000
L140.2500 112.7589
" />
<path d="M119.7500 94.1000
L130.4411 94.1000
" />
<path d="M130.4411 94.1000
L140.2500 103.9089
" />
<path d="M140.2500 105.7339
L140.2500 110.8839
" />
</g>
<g style="fill:none; 
stroke:#F2EDA1; stroke-width:0.1500; stroke-opacity:1; 
stroke-linecap:round; stroke-linejoin:round;">
<g transform="rotate(-90.000000 138.6000 111.8214)">
<text x="138.6000" y="112.3214"
textLength="2.2024" font-size="1.3333" lengthAdjust="spacingAndGlyphs"
text-anchor="middle" opacity="0" stroke-opacity="0">D2</text>
</g>
<g class="stroked-text"><desc>D2</desc>
<path d="M139.0548 112.5595
L138.0548 112.5595
" />
<path d="M138.0548 112.5595
L138.0548 112.3214
" />
<path d="M138.0548 112.3214
L138.1024 112.1786
" />
<path d="M138.1024 112.1786
L138.1977 112.0833
" />
<path d="M138.1977 112.0833
L138.2929 112.0357
" />
<path d="M138.2929 112.0357
L138.4834 111.9881
" />
<path d="M138.4834 111.9881
L138.6262 111.9881
" />
<path d="M138.6262 111.9881
L138.8167 112.0357
" />
<path d="M138.8167 112.0357
L138.9120 112.0833
" />
<path d="M138.9120 112.0833
L139.0072 112.1786
" />
<path d="M139.0072 112.1786
L139.0548 112.3214
" />
<path d="M139.0548 112.3214
L139.0548 112.5595
" />
<path d="M138.1501 111.6071
L138.1024 111.5595
" />
<path d="M138.1024 111.5595
L138.0548 111.4643
" />
<path d="M138.0548 111.4643
L138.0548 111.2262
" />
<path d="M138.0548 111.2262
L138.1024 111.1310
" />
<path d="M138.1024 111.1310
L138.1501 111.0833
" />
<path d="M138.1501 111.0833
L138.2453 111.0357
" />
<path d="M138.2453 111.0357
L138.3405 111.0357
" />
<path d="M138.3405 111.0357
L138.4834 111.0833
" />
<path d="M138.4834 111.0833
L139.0548 111.6548
" />
<path d="M139.0548 111.6548
L139.0548 111.0357
" />
</g><g transform="rotate(-90.000000 141.9000 104.8214)">
<text x="141.9000" y="105.3214"
textLength="2.2024" font-size="1.3333" lengthAdjust="spacingAndGlyphs"
text-anchor="middle" opacity="0" stroke-opacity="0">R1</text>
</g>
<g class="stroked-text"><desc>R1</desc>
<path d="M142.3548 104.9881
L141.8786 105.3214
" />
<path d="M142.3548 105.5595
L141.3548 105.5595
" />
<path d="M141.3548 105.5595
L141.3548 105.1786
" />
<path d="M141.3548 105.1786
L141.4024 105.0833
" />
<path d="M141.4024 105.0833
L141.4501 105.0357
" />
<path d="M141.4501 105.0357
L141.5453 104.9881
" />
<path d="M141.5453 104.9881
L141.6882 104.9881
" />
<path d="M141.6882 104.9881
L141.7834 105.0357
" />
<path d="M141.7834 105.0357
L141.8310 105.0833
" />
<path d="M141.8310 105.0833
L141.8786 105.1786
" />
<path d="M141.8786 105.1786
L141.8786 105.5595
" />
<path d="M142.3548 104.0357
L142.3548 104.6071
" />
<path d="M142.3548 104.3214
L141.3548 104.3214
" />
<path d="M141.3548 104.3214
L141.4977 104.4167
" />
<path d="M141.4977 104.4167
L141.5929 104.5119
" />
<path d="M141.5929 104.5119
L141.6405 104.6071
" />
</g><g transform="rotate(-90.000000 125.0500 94.6250)">
<text x="125.0500" y="95.1250"
textLength="2.9643" font-size="1.3333" lengthAdjust="spacingAndGlyphs"
text-anchor="middle" opacity="0" stroke-opacity="0">BT1</text>
</g>
<g class="stroked-text"><desc>BT1</desc>
<path d="M124.9810 95.4107
L125.0286 95.2679
" />
<path d="M125.0286 95.2679
L125.0762 95.2202
" />
<path d="M125.0762 95.2202
L125.1715 95.1726
" />
<path d="M125.1715 95.1726
L125.3143 95.1726
" />
<path d="M125.3143 95.1726
L125.4096 95.2202
" />
<path d="M125.4096 95.2202
L125.4572 95.2679
" />
<path d="M125.4572 95.2679
L125.5048 95.3631
" />
<path d="M125.5048 95.3631
L125.5048 95.7440
" />
<path d="M125.5048 95.7440
L124.5048 95.7440
" />
<path d="M124.5048 95.7440
L124.5048 95.4107
" />
<path d="M124.5048 95.4107
L124.5524 95.3155
" />
<path d="M124.5524 95.3155
L124.6001 95.2679
" />
<path d="M124.6001 95.2679
L124.6953 95.2202
" />
<path d="M124.6953 95.2202
L124.7905 95.2202
" />
<path d="M124.7905 95.2202
L124.8858 95.2679
" />
<path d="M124.8858 95.2679
L124.9334 95.3155
" />
<path d="M124.9334 95.3155
L124.9810 95.4107
" />
<path d="M124.9810 95.4107
L124.9810 95.7440
" />
<path d="M124.5048 94.8869
L124.5048 94.3155
" />
<path d="M125.5048 94.6012
L124.5048 94.6012
" />
<path d="M125.5048 93.4583
L125.5048 94.0298
" />
<path d="M125.5048 93.7440
L124.5048 93.7440
" />
<path d="M124.5048 93.7440
L124.6477 93.8393
" />
<path d="M124.6477 93.8393
L124.7429 93.9345
" />
<path d="M124.7429 93.9345
L124.7905 94.0298
" />
</g></g>
<g style="fill:none; 
stroke:#F2EDA1; stroke-width:0.1200; stroke-opacity:1; 
stroke-linecap:round; stroke-linejoin:round;">
<path d="M139.2900 110.8214
L139.2900 113.5064
" />
<path d="M139.2900 113.5064
L141.2100 113.5064
" />
<path d="M141.2100 113.5064
L141.2100 110.8214
" />
<path d="M139.5150 104.5944
L139.5150 105.0485
" />
<path d="M140.9850 104.5944
L140.9850 105.0485
" />
<path d="M111.4000 99.2000
L113.2000 97.4000
" />
<path d="M111.4000 120.1000
L111.4000 99.2000
" />
<path d="M111.4000 120.1000
L115.9000 120.1000
" />
<path d="M113.2000 97.4000
L115.9000 97.4000
" />
<path d="M113.7500 96.7500
L113.7500 94.7500
" />
<path d="M114.7500 95.7500
L112.7500 95.7500
" />
<path d="M115.9000 94.2000
L117.4500 94.2000
" />
<path d="M115.9000 97.4000
L115.9000 94.2000
" />
<path d="M115.9000 120.1000
L115.9000 123.3000
" />
<path d="M115.9000 123.3000
L117.4500 123.3000
" />
<path d="M123.6000 94.2000
L122.0500 94.2000
" />
<path d="M123.6000 97.4000
L123.6000 94.2000
" />
<path d="M123.6000 120.1000
L123.6000 123.3000
" />
<path d="M123.6000 123.3000
L122.0500 123.3000
" />
<path d="M128.1000 97.4000
L123.6000 97.4000
" />
<path d="M128.1000 97.4000
L128.1000 120.1000
" />
<path d="M128.1000 120.1000
L123.6000 120.1000
" />
</g>
<g style="fill:none; 
stroke:#D0D2CD; stroke-width:0.0500; stroke-opacity:1; 
stroke-linecap:round; stroke-linejoin:round;">
<path d="M106.5000 86.2500
L149.7500 86.2500
" />
<path d="M106.5000 129.5000
L106.5000 86.2500
" />
<path d="M149.7500 129.5000
L149.7500 86.2500
" />
<path d="M106.5000 129.5000
L149.7500 129.5000
" />
</g>
<g style="fill:none; 
stroke:#AFAFAF; stroke-width:0.1500; stroke-opacity:1; 
stroke-linecap:round; stroke-linejoin:round;">
<g transform="rotate(-90.000000 141.9000 111.8214)">
<text x="141.9000" y="112.3214"
textLength="7.9643" font-size="1.3333" lengthAdjust="spacingAndGlyphs"
text-anchor="middle" opacity="0" stroke-opacity="0">LED_Small</text>
</g>
<g class="stroked-text"><desc>LED_Small</desc>
<path d="M142.3548 114.9643
L142.3548 115.4405
" />
<path d="M142.3548 115.4405
L141.3548 115.4405
" />
<path d="M141.8310 114.6310
L141.8310 114.2976
" />
<path d="M142.3548 114.1548
L142.3548 114.6310
" />
<path d="M142.3548 114.6310
L141.3548 114.6310
" />
<path d="M141.3548 114.6310
L141.3548 114.1548
" />
<path d="M142.3548 113.7262
L141.3548 113.7262
" />
<path d="M141.3548 113.7262
L141.3548 113.4881
" />
<path d="M141.3548 113.4881
L141.4024 113.3452
" />
<path d="M141.4024 113.3452
L141.4977 113.2500
" />
<path d="M141.4977 113.2500
L141.5929 113.2024
" />
<path d="M141.5929 113.2024
L141.7834 113.1548
" />
<path d="M141.7834 113.1548
L141.9262 113.1548
" />
<path d="M141.9262 113.1548
L142.1167 113.2024
" />
<path d="M142.1167 113.2024
L142.2120 113.2500
" />
<path d="M142.2120 113.2500
L142.3072 113.3452
" />
<path d="M142.3072 113.3452
L142.3548 113.4881
" />
<path d="M142.3548 113.4881
L142.3548 113.7262
" />
<path d="M142.4501 112.9643
L142.4501 112.2024
" />
<path d="M142.3072 112.0119
L142.3548 111.8690
" />
<path d="M142.3548 111.8690
L142.3548 111.6310
" />
<path d="M142.3548 111.6310
L142.3072 111.5357
" />
<path d="M142.3072 111.5357
L142.2596 111.4881
" />
<path d="M142.2596 111.4881
L142.1643 111.4405
" />
<path d="M142.1643 111.4405
L142.0691 111.4405
" />
<path d="M142.0691 111.4405
L141.9739 111.4881
" />
<path d="M141.9739 111.4881
L141.9262 111.5357
" />
<path d="M141.9262 111.5357
L141.8786 111.6310
" />
<path d="M141.8786 111.6310
L141.8310 111.8214
" />
<path d="M141.8310 111.8214
L141.7834 111.9167
" />
<path d="M141.7834 111.9167
L141.7358 111.9643
" />
<path d="M141.7358 111.9643
L141.6405 112.0119
" />
<path d="M141.6405 112.0119
L141.5453 112.0119
" />
<path d="M141.5453 112.0119
L141.4501 111.9643
" />
<path d="M141.4501 111.9643
L141.4024 111.9167
" />
<path d="M141.4024 111.9167
L141.3548 111.8214
" />
<path d="M141.3548 111.8214
L141.3548 111.5833
" />
<path d="M141.3548 111.5833
L141.4024 111.4405
" />
<path d="M142.3548 111.0119
L141.6882 111.0119
" />
<path d="M141.7834 111.0119
L141.7358 110.9643
" />
<path d="M141.7358 110.9643
L141.6882 110.8690
" />
<path d="M141.6882 110.8690
L141.6882 110.7262
" />
<path d="M141.6882 110.7262
L141.7358 110.6310
" />
<path d="M141.7358 110.6310
L141.8310 110.5833
" />
<path d="M141.8310 110.5833
L142.3548 110.5833
" />
<path d="M141.8310 110.5833
L141.7358 110.5357
" />
<path d="M141.7358 110.5357
L141.6882 110.4405
" />
<path d="M141.6882 110.4405
L141.6882 110.2976
" />
<path d="M141.6882 110.2976
L141.7358 110.2024
" />
<path d="M141.7358 110.2024
L141.8310 110.1548
" />
<path d="M141.8310 110.1548
L142.3548 110.1548
" />
<path d="M142.3548 109.2500
L141.8310 109.2500
" />
<path d="M141.8310 109.2500
L141.7358 109.2976
" />
<path d="M141.7358 109.2976
L141.6882 109.3929
" />
<path d="M141.6882 109.3929
L141.6882 109.5833
" />
<path d="M141.6882 109.5833
L141.7358 109.6786
" />
<path d="M142.3072 109.2500
L142.3548 109.3452
" />
<path d="M142.3548 109.3452
L142.3548 109.5833
" />
<path d="M142.3548 109.5833
L142.3072 109.6786
" />
<path d="M142.3072 109.6786
L142.2120 109.7262
" />
<path d="M142.2120 109.7262
L142.1167 109.7262
" />
<path d="M142.1167 109.7262
L142.0215 109.6786
" />
<path d="M142.0215 109.6786
L141.9739 109.5833
" />
<path d="M141.9739 109.5833
L141.9739 109.3452
" />
<path d="M141.9739 109.3452
L141.9262 109.2500
" />
<path d="M142.3548 108.6310
L142.3072 108.7262
" />
<path d="M142.3072 108.7262
L142.2120 108.7738
" />
<path d="M142.2120 108.7738
L141.3548 108.7738
" />
<path d="M142.3548 108.1071
L142.3072 108.2024
" />
<path d="M142.3072 108.2024
L142.2120 108.2500
" />
<path d="M142.2120 108.2500
L141.3548 108.2500
" />
</g></g>
<g style="fill:none; 
stroke:#AFAFAF; stroke-width:0.0800; stroke-opacity:1; 
stroke-linecap:round; stroke-linejoin:round;">
<g transform="rotate(-90.000000 140.2500 111.8214)">
<text x="140.2500" y="112.0714"
textLength="1.1162" font-size="0.6667" lengthAdjust="spacingAndGlyphs"
text-anchor="middle" opacity="0" stroke-opacity="0">D2</text>
</g>
<g class="stroked-text"><desc>D2</desc>
<path d="M140.4771 112.1905
L139.9771 112.1905
" />
<path d="M139.9771 112.1905
L139.9771 112.0714
" />
<path d="M139.9771 112.0714
L140.0010 112.0000
" />
<path d="M140.0010 112.0000
L140.0486 111.9524
" />
<path d="M140.0486 111.9524
L140.0962 111.9286
" />
<path d="M140.0962 111.9286
L140.1914 111.9048
" />
<path d="M140.1914 111.9048
L140.2629 111.9048
" />
<path d="M140.2629 111.9048
L140.3581 111.9286
" />
<path d="M140.3581 111.9286
L140.4057 111.9524
" />
<path d="M140.4057 111.9524
L140.4533 112.0000
" />
<path d="M140.4533 112.0000
L140.4771 112.0714
" />
<path d="M140.4771 112.0714
L140.4771 112.1905
" />
<path d="M140.0248 111.7143
L140.0010 111.6905
" />
<path d="M140.0010 111.6905
L139.9771 111.6429
" />
<path d="M139.9771 111.6429
L139.9771 111.5238
" />
<path d="M139.9771 111.5238
L140.0010 111.4762
" />
<path d="M140.0010 111.4762
L140.0248 111.4524
" />
<path d="M140.0248 111.4524
L140.0724 111.4286
" />
<path d="M140.0724 111.4286
L140.1200 111.4286
" />
<path d="M140.1200 111.4286
L140.1914 111.4524
" />
<path d="M140.1914 111.4524
L140.4771 111.7381
" />
<path d="M140.4771 111.7381
L140.4771 111.4286
" />
</g></g>
<g style="fill:none; 
stroke:#AFAFAF; stroke-width:0.1500; stroke-opacity:1; 
stroke-linecap:round; stroke-linejoin:round;">
<g transform="rotate(-90.000000 138.6000 104.8214)">
<text x="138.6000" y="105.3214"
textLength="6.2500" font-size="1.3333" lengthAdjust="spacingAndGlyphs"
text-anchor="middle" opacity="0" stroke-opacity="0">R_Small</text>
</g>
<g class="stroked-text"><desc>R_Small</desc>
<path d="M139.0548 107.0119
L138.5786 107.3452
" />
<path d="M139.0548 107.5833
L138.0548 107.5833
" />
<path d="M138.0548 107.5833
L138.0548 107.2024
" />
<path d="M138.0548 107.2024
L138.1024 107.1071
" />
<path d="M138.1024 107.1071
L138.1501 107.0595
" />
<path d="M138.1501 107.0595
L138.2453 107.0119
" />
<path d="M138.2453 107.0119
L138.3882 107.0119
" />
<path d="M138.3882 107.0119
L138.4834 107.0595
" />
<path d="M138.4834 107.0595
L138.5310 107.1071
" />
<path d="M138.5310 107.1071
L138.5786 107.2024
" />
<path d="M138.5786 107.2024
L138.5786 107.5833
" />
<path d="M139.1501 106.8214
L139.1501 106.0595
" />
<path d="M139.0072 105.8690
L139.0548 105.7262
" />
<path d="M139.0548 105.7262
L139.0548 105.4881
" />
<path d="M139.0548 105.4881
L139.0072 105.3929
" />
<path d="M139.0072 105.3929
L138.9596 105.3452
" />
<path d="M138.9596 105.3452
L138.8643 105.2976
" />
<path d="M138.8643 105.2976
L138.7691 105.2976
" />
<path d="M138.7691 105.2976
L138.6739 105.3452
" />
<path d="M138.6739 105.3452
L138.6262 105.3929
" />
<path d="M138.6262 105.3929
L138.5786 105.4881
" />
<path d="M138.5786 105.4881
L138.5310 105.6786
" />
<path d="M138.5310 105.6786
L138.4834 105.7738
" />
<path d="M138.4834 105.7738
L138.4358 105.8214
" />
<path d="M138.4358 105.8214
L138.3405 105.8690
" />
<path d="M138.3405 105.8690
L138.2453 105.8690
" />
<path d="M138.2453 105.8690
L138.1501 105.8214
" />
<path d="M138.1501 105.8214
L138.1024 105.7738
" />
<path d="M138.1024 105.7738
L138.0548 105.6786
" />
<path d="M138.0548 105.6786
L138.0548 105.4405
" />
<path d="M138.0548 105.4405
L138.1024 105.2976
" />
<path d="M139.0548 104.8690
L138.3882 104.8690
" />
<path d="M138.4834 104.8690
L138.4358 104.8214
" />
<path d="M138.4358 104.8214
L138.3882 104.7262
" />
<path d="M138.3882 104.7262
L138.3882 104.5833
" />
<path d="M138.3882 104.5833
L138.4358 104.4881
" />
<path d="M138.4358 104.4881
L138.5310 104.4405
" />
<path d="M138.5310 104.4405
L139.0548 104.4405
" />
<path d="M138.5310 104.4405
L138.4358 104.3929
" />
<path d="M138.4358 104.3929
L138.3882 104.2976
" />
<path d="M138.3882 104.2976
L138.3882 104.1548
" />
<path d="M138.3882 104.1548
L138.4358 104.0595
" />
<path d="M138.4358 104.0595
L138.5310 104.0119
" />
<path d="M138.5310 104.0119
L139.0548 104.0119
" />
<path d="M139.0548 103.1071
L138.5310 103.1071
" />
<path d="M138.5310 103.1071
L138.4358 103.1548
" />
<path d="M138.4358 103.1548
L138.3882 103.2500
" />
<path d="M138.3882 103.2500
L138.3882 103.4405
" />
<path d="M138.3882 103.4405
L138.4358 103.5357
" />
<path d="M139.0072 103.1071
L139.0548 103.2024
" />
<path d="M139.0548 103.2024
L139.0548 103.4405
" />
<path d="M139.0548 103.4405
L139.0072 103.5357
" />
<path d="M139.0072 103.5357
L138.9120 103.5833
" />
<path d="M138.9120 103.5833
L138.8167 103.5833
" />
<path d="M138.8167 103.5833
L138.7215 103.5357
" />
<path d="M138.7215 103.5357
L138.6739 103.4405
" />
<path d="M138.6739 103.4405
L138.6739 103.2024
" />
<path d="M138.6739 103.2024
L138.6262 103.1071
" />
<path d="M139.0548 102.4881
L139.0072 102.5833
" />
<path d="M139.0072 102.5833
L138.9120 102.6310
" />
<path d="M138.9120 102.6310
L138.0548 102.6310
" />
<path d="M139.0548 101.9643
L139.0072 102.0595
" />
<path d="M139.0072 102.0595
L138.9120 102.1071
" />
<path d="M138.9120 102.1071
L138.0548 102.1071
" />
</g></g>
<g style="fill:none; 
stroke:#AFAFAF; stroke-width:0.0800; stroke-opacity:1; 
stroke-linecap:round; stroke-linejoin:round;">
<g transform="rotate(-90.000000 140.2500 104.8214)">
<text x="140.2500" y="105.0714"
textLength="1.1162" font-size="0.6667" lengthAdjust="spacingAndGlyphs"
text-anchor="middle" opacity="0" stroke-opacity="0">R1</text>
</g>
<g class="stroked-text"><desc>R1</desc>
<path d="M140.4771 104.9048
L140.2391 105.0714
" />
<path d="M140.4771 105.1905
L139.9771 105.1905
" />
<path d="M139.9771 105.1905
L139.9771 105.0000
" />
<path d="M139.9771 105.0000
L140.0010 104.9524
" />
<path d="M140.0010 104.9524
L140.0248 104.9286
" />
<path d="M140.0248 104.9286
L140.0724 104.9048
" />
<path d="M140.0724 104.9048
L140.1438 104.9048
" />
<path d="M140.1438 104.9048
L140.1914 104.9286
" />
<path d="M140.1914 104.9286
L140.2152 104.9524
" />
<path d="M140.2152 104.9524
L140.2391 105.0000
" />
<path d="M140.2391 105.0000
L140.2391 105.1905
" />
<path d="M140.4771 104.4286
L140.4771 104.7143
" />
<path d="M140.4771 104.5714
L139.9771 104.5714
" />
<path d="M139.9771 104.5714
L140.0486 104.6190
" />
<path d="M140.0486 104.6190
L140.0962 104.6667
" />
<path d="M140.0962 104.6667
L140.1200 104.7143
" />
</g></g>
<g style="fill:none; 
stroke:#AFAFAF; stroke-width:0.1500; stroke-opacity:1; 
stroke-linecap:round; stroke-linejoin:round;">
<g transform="rotate(-90.000000 131.5000 108.7500)">
<text x="131.5000" y="109.2500"
textLength="9.2024" font-size="1.3333" lengthAdjust="spacingAndGlyphs"
text-anchor="middle" opacity="0" stroke-opacity="0">Battery_Cell</text>
</g>
<g class="stroked-text"><desc>Battery_Cell</desc>
<path d="M131.4310 112.6548
L131.4786 112.5119
" />
<path d="M131.4786 112.5119
L131.5262 112.4643
" />
<path d="M131.5262 112.4643
L131.6215 112.4167
" />
<path d="M131.6215 112.4167
L131.7643 112.4167
" />
<path d="M131.7643 112.4167
L131.8596 112.4643
" />
<path d="M131.8596 112.4643
L131.9072 112.5119
" />
<path d="M131.9072 112.5119
L131.9548 112.6071
" />
<path d="M131.9548 112.6071
L131.9548 112.9881
" />
<path d="M131.9548 112.9881
L130.9548 112.9881
" />
<path d="M130.9548 112.9881
L130.9548 112.6548
" />
<path d="M130.9548 112.6548
L131.0024 112.5595
" />
<path d="M131.0024 112.5595
L131.0501 112.5119
" />
<path d="M131.0501 112.5119
L131.1453 112.4643
" />
<path d="M131.1453 112.4643
L131.2405 112.4643
" />
<path d="M131.2405 112.4643
L131.3358 112.5119
" />
<path d="M131.3358 112.5119
L131.3834 112.5595
" />
<path d="M131.3834 112.5595
L131.4310 112.6548
" />
<path d="M131.4310 112.6548
L131.4310 112.9881
" />
<path d="M131.9548 111.5595
L131.4310 111.5595
" />
<path d="M131.4310 111.5595
L131.3358 111.6071
" />
<path d="M131.3358 111.6071
L131.2882 111.7024
" />
<path d="M131.2882 111.7024
L131.2882 111.8929
" />
<path d="M131.2882 111.8929
L131.3358 111.9881
" />
<path d="M131.9072 111.5595
L131.9548 111.6548
" />
<path d="M131.9548 111.6548
L131.9548 111.8929
" />
<path d="M131.9548 111.8929
L131.9072 111.9881
" />
<path d="M131.9072 111.9881
L131.8120 112.0357
" />
<path d="M131.8120 112.0357
L131.7167 112.0357
" />
<path d="M131.7167 112.0357
L131.6215 111.9881
" />
<path d="M131.6215 111.9881
L131.5739 111.8929
" />
<path d="M131.5739 111.8929
L131.5739 111.6548
" />
<path d="M131.5739 111.6548
L131.5262 111.5595
" />
<path d="M131.2882 111.2262
L131.2882 110.8452
" />
<path d="M130.9548 111.0833
L131.8120 111.0833
" />
<path d="M131.8120 111.0833
L131.9072 111.0357
" />
<path d="M131.9072 111.0357
L131.9548 110.9405
" />
<path d="M131.9548 110.9405
L131.9548 110.8452
" />
<path d="M131.2882 110.6548
L131.2882 110.2738
" />
<path d="M130.9548 110.5119
L131.8120 110.5119
" />
<path d="M131.8120 110.5119
L131.9072 110.4643
" />
<path d="M131.9072 110.4643
L131.9548 110.3690
" />
<path d="M131.9548 110.3690
L131.9548 110.2738
" />
<path d="M131.9072 109.5595
L131.9548 109.6548
" />
<path d="M131.9548 109.6548
L131.9548 109.8452
" />
<path d="M131.9548 109.8452
L131.9072 109.9405
" />
<path d="M131.9072 109.9405
L131.8120 109.9881
" />
<path d="M131.8120 109.9881
L131.4310 109.9881
" />
<path d="M131.4310 109.9881
L131.3358 109.9405
" />
<path d="M131.3358 109.9405
L131.2882 109.8452
" />
<path d="M131.2882 109.8452
L131.2882 109.6548
" />
<path d="M131.2882 109.6548
L131.3358 109.5595
" />
<path d="M131.3358 109.5595
L131.4310 109.5119
" />
<path d="M131.4310 109.5119
L131.5262 109.5119
" />
<path d="M131.5262 109.5119
L131.6215 109.9881
" />
<path d="M131.9548 109.0833
L131.2882 109.0833
" />
<path d="M131.4786 109.0833
L131.3834 109.0357
" />
<path d="M131.3834 109.0357
L131.3358 108.9881
" />
<path d="M131.3358 108.9881
L131.2882 108.8929
" />
<path d="M131.2882 108.8929
L131.2882 108.7976
" />
<path d="M131.2882 108.5595
L131.9548 108.3214
" />
<path d="M131.2882 108.0833
L131.9548 108.3214
" />
<path d="M131.9548 108.3214
L132.1929 108.4167
" />
<path d="M132.1929 108.4167
L132.2405 108.4643
" />
<path d="M132.2405 108.4643
L132.2882 108.5595
" />
<path d="M132.0501 107.9405
L132.0501 107.1786
" />
<path d="M131.8596 106.3690
L131.9072 106.4167
" />
<path d="M131.9072 106.4167
L131.9548 106.5595
" />
<path d="M131.9548 106.5595
L131.9548 106.6548
" />
<path d="M131.9548 106.6548
L131.9072 106.7976
" />
<path d="M131.9072 106.7976
L131.8120 106.8929
" />
<path d="M131.8120 106.8929
L131.7167 106.9405
" />
<path d="M131.7167 106.9405
L131.5262 106.9881
" />
<path d="M131.5262 106.9881
L131.3834 106.9881
" />
<path d="M131.3834 106.9881
L131.1929 106.9405
" />
<path d="M131.1929 106.9405
L131.0977 106.8929
" />
<path d="M131.0977 106.8929
L131.0024 106.7976
" />
<path d="M131.0024 106.7976
L130.9548 106.6548
" />
<path d="M130.9548 106.6548
L130.9548 106.5595
" />
<path d="M130.9548 106.5595
L131.0024 106.4167
" />
<path d="M131.0024 106.4167
L131.0501 106.3690
" />
<path d="M131.9072 105.5595
L131.9548 105.6548
" />
<path d="M131.9548 105.6548
L131.9548 105.8452
" />
<path d="M131.9548 105.8452
L131.9072 105.9405
" />
<path d="M131.9072 105.9405
L131.8120 105.9881
" />
<path d="M131.8120 105.9881
L131.4310 105.9881
" />
<path d="M131.4310 105.9881
L131.3358 105.9405
" />
<path d="M131.3358 105.9405
L131.2882 105.8452
" />
<path d="M131.2882 105.8452
L131.2882 105.6548
" />
<path d="M131.2882 105.6548
L131.3358 105.5595
" />
<path d="M131.3358 105.5595
L131.4310 105.5119
" />
<path d="M131.4310 105.5119
L131.5262 105.5119
" />
<path d="M131.5262 105.5119
L131.6215 105.9881
" />
<path d="M131.9548 104.9405
L131.9072 105.0357
" />
<path d="M131.9072 105.0357
L131.8120 105.0833
" />
<path d="M131.8120 105.0833
L130.9548 105.0833
" />
<path d="M131.9548 104.4167
L131.9072 104.5119
" />
<path d="M131.9072 104.5119
L131.8120 104.5595
" />
<path d="M131.8120 104.5595
L130.9548 104.5595
" />
</g><g transform="rotate(-90.000000 119.7500 108.7500)">
<text x="119.7500" y="109.2500"
textLength="2.9643" font-size="1.3333" lengthAdjust="spacingAndGlyphs"
text-anchor="middle" opacity="0" stroke-opacity="0">BT1</text>
</g>
<g class="stroked-text"><desc>BT1</desc>
<path d="M119.6810 109.5357
L119.7286 109.3929
" />
<path d="M119.7286 109.3929
L119.7762 109.3452
" />
<path d="M119.7762 109.3452
L119.8715 109.2976
" />
<path d="M119.8715 109.2976
L120.0143 109.2976
" />
<path d="M120.0143 109.2976
L120.1096 109.3452
" />
<path d="M120.1096 109.3452
L120.1572 109.3929
" />
<path d="M120.1572 109.3929
L120.2048 109.4881
" />
<path d="M120.2048 109.4881
L120.2048 109.8690
" />
<path d="M120.2048 109.8690
L119.2048 109.8690
" />
<path d="M119.2048 109.8690
L119.2048 109.5357
" />
<path d="M119.2048 109.5357
L119.2524 109.4405
" />
<path d="M119.2524 109.4405
L119.3001 109.3929
" />
<path d="M119.3001 109.3929
L119.3953 109.3452
" />
<path d="M119.3953 109.3452
L119.4905 109.3452
" />
<path d="M119.4905 109.3452
L119.5858 109.3929
" />
<path d="M119.5858 109.3929
L119.6334 109.4405
" />
<path d="M119.6334 109.4405
L119.6810 109.5357
" />
<path d="M119.6810 109.5357
L119.6810 109.8690
" />
<path d="M119.2048 109.0119
L119.2048 108.4405
" />
<path d="M120.2048 108.7262
L119.2048 108.7262
" />
<path d="M120.2048 107.5833
L120.2048 108.1548
" />
<path d="M120.2048 107.8690
L119.2048 107.8690
" />
<path d="M119.2048 107.8690
L119.3477 107.9643
" />
<path d="M119.3477 107.9643
L119.4429 108.0595
" />
<path d="M119.4429 108.0595
L119.4905 108.1548
" />
</g></g>
<g style="fill:none; 
stroke:#AFAFAF; stroke-width:0.1000; stroke-opacity:1; 
stroke-linecap:round; stroke-linejoin:round;">
<path d="M139.6500 110.8214
L139.6500 112.5214
" />
<path d="M139.6500 112.5214
L139.9500 112.8214
" />
<path d="M139.9500 112.8214
L140.8500 112.8214
" />
<path d="M140.8500 110.8214
L139.6500 110.8214
" />
<path d="M140.8500 112.8214
L140.8500 110.8214
" />
<path d="M139.6250 103.8214
L140.8750 103.8214
" />
<path d="M139.6250 105.8214
L139.6250 103.8214
" />
<path d="M140.8750 103.8214
L140.8750 105.8214
" />
<path d="M140.8750 105.8214
L139.6250 105.8214
" />
<path d="M111.7500 99.3500
L113.3500 97.7500
" />
<path d="M111.7500 119.7500
L111.7500 99.3500
" />
<path d="M111.7500 119.7500
L116.2500 119.7500
" />
<path d="M113.3500 97.7500
L116.2500 97.7500
" />
<path d="M116.2500 94.5500
L123.2500 94.5500
" />
<path d="M116.2500 97.7500
L116.2500 94.5500
" />
<path d="M116.2500 119.7500
L116.2500 122.9500
" />
<path d="M116.2500 122.9500
L123.2500 122.9500
" />
<path d="M123.2500 94.5500
L123.2500 97.7500
" />
<path d="M123.2500 122.9500
L123.2500 119.7500
" />
<path d="M127.7500 97.7500
L123.2500 97.7500
" />
<path d="M127.7500 119.7500
L123.2500 119.7500
" />
<path d="M127.7500 119.7500
L127.7500 97.7500
" />
</g>
<g style="fill:none; 
stroke:#C2C2C2; stroke-width:0.3000; stroke-opacity:1; 
stroke-linecap:round; stroke-linejoin:round;">
<circle cx="119.7500" cy="108.7500" r="10.2000" /> 
</g> 
</svg>
