%TF.GenerationSoftware,KiCad,Pcbnew,9.0.2*%
%TF.CreationDate,2026-03-16T21:39:03-07:00*%
%TF.ProjectId,sample_project,73616d70-6c65-45f7-9072-6f6a6563742e,rev?*%
%TF.SameCoordinates,Original*%
%TF.FileFunction,Copper,L2,Bot*%
%TF.FilePolarity,Positive*%
%FSLAX46Y46*%
G04 Gerber Fmt 4.6, Leading zero omitted, Abs format (unit mm)*
G04 Created by KiCad (PCBNEW 9.0.2) date 2026-03-16 21:39:03*
%MOMM*%
%LPD*%
G01*
G04 APERTURE LIST*
%TA.AperFunction,ComponentPad*%
%ADD10R,1.800000X1.800000*%
%TD*%
%TA.AperFunction,ComponentPad*%
%ADD11C,1.800000*%
%TD*%
%TA.AperFunction,ComponentPad*%
%ADD12C,1.600000*%
%TD*%
%TA.AperFunction,ComponentPad*%
%ADD13C,0.800000*%
%TD*%
%TA.AperFunction,ComponentPad*%
%ADD14C,6.400000*%
%TD*%
%ADD15C,0.350000*%
G04 APERTURE END LIST*
D10*
%TO.P,D2,1,K*%
%TO.N,GND*%
X146250000Y-114270000D03*
D11*
%TO.P,D2,2,A*%
%TO.N,Net-(D2-A)*%
X146250000Y-111730000D03*
%TD*%
D12*
%TO.P,R2,1*%
%TO.N,+BATT*%
X146250000Y-97670000D03*
%TO.P,R2,2*%
%TO.N,Net-(D2-A)*%
X146250000Y-107830000D03*
%TD*%
D13*
%TO.P,H1,1,1*%
%TO.N,GND*%
X142600000Y-91000000D03*
X143302944Y-89302944D03*
X143302944Y-92697056D03*
X145000000Y-88600000D03*
D14*
X145000000Y-91000000D03*
D13*
X145000000Y-93400000D03*
X146697056Y-89302944D03*
X146697056Y-92697056D03*
X147400000Y-91000000D03*
%TD*%
%TO.P,H2,1,1*%
%TO.N,unconnected-(H2-Pad1)*%
X143100000Y-125250000D03*
X143802944Y-123552944D03*
X143802944Y-126947056D03*
X145500000Y-122850000D03*
D14*
X145500000Y-125250000D03*
D13*
X145500000Y-127650000D03*
X147197056Y-123552944D03*
X147197056Y-126947056D03*
X147900000Y-125250000D03*
%TD*%
D15*
X146250000Y-114270000D03*
X146250000Y-111730000D03*
X146250000Y-97670000D03*
X146250000Y-107830000D03*
X142600000Y-91000000D03*
X143302944Y-89302944D03*
X143302944Y-92697056D03*
X145000000Y-88600000D03*
X145000000Y-91000000D03*
X145000000Y-93400000D03*
X146697056Y-89302944D03*
X146697056Y-92697056D03*
X147400000Y-91000000D03*
X143100000Y-125250000D03*
X143802944Y-123552944D03*
X143802944Y-126947056D03*
X145500000Y-122850000D03*
X145500000Y-125250000D03*
X145500000Y-127650000D03*
X147197056Y-123552944D03*
X147197056Y-126947056D03*
X147900000Y-125250000D03*
M02*
