%TF.GenerationSoftware,KiCad,Pcbnew,9.0.2*%
%TF.CreationDate,2026-03-16T21:39:03-07:00*%
%TF.ProjectId,sample_project,73616d70-6c65-45f7-9072-6f6a6563742e,rev?*%
%TF.SameCoordinates,Original*%
%TF.FileFunction,Legend,Top*%
%TF.FilePolarity,Positive*%
%FSLAX46Y46*%
G04 Gerber Fmt 4.6, Leading zero omitted, Abs format (unit mm)*
G04 Created by KiCad (PCBNEW 9.0.2) date 2026-03-16 21:39:03*
%MOMM*%
%LPD*%
G01*
G04 APERTURE LIST*
%ADD10C,0.150000*%
%ADD11C,0.120000*%
%ADD12C,0.350000*%
G04 APERTURE END LIST*
D10*
X143744819Y-113738094D02*
X142744819Y-113738094D01*
X142744819Y-113738094D02*
X142744819Y-113499999D01*
X142744819Y-113499999D02*
X142792438Y-113357142D01*
X142792438Y-113357142D02*
X142887676Y-113261904D01*
X142887676Y-113261904D02*
X142982914Y-113214285D01*
X142982914Y-113214285D02*
X143173390Y-113166666D01*
X143173390Y-113166666D02*
X143316247Y-113166666D01*
X143316247Y-113166666D02*
X143506723Y-113214285D01*
X143506723Y-113214285D02*
X143601961Y-113261904D01*
X143601961Y-113261904D02*
X143697200Y-113357142D01*
X143697200Y-113357142D02*
X143744819Y-113499999D01*
X143744819Y-113499999D02*
X143744819Y-113738094D01*
X142840057Y-112785713D02*
X142792438Y-112738094D01*
X142792438Y-112738094D02*
X142744819Y-112642856D01*
X142744819Y-112642856D02*
X142744819Y-112404761D01*
X142744819Y-112404761D02*
X142792438Y-112309523D01*
X142792438Y-112309523D02*
X142840057Y-112261904D01*
X142840057Y-112261904D02*
X142935295Y-112214285D01*
X142935295Y-112214285D02*
X143030533Y-112214285D01*
X143030533Y-112214285D02*
X143173390Y-112261904D01*
X143173390Y-112261904D02*
X143744819Y-112833332D01*
X143744819Y-112833332D02*
X143744819Y-112214285D01*
X149074819Y-102916666D02*
X148598628Y-103249999D01*
X149074819Y-103488094D02*
X148074819Y-103488094D01*
X148074819Y-103488094D02*
X148074819Y-103107142D01*
X148074819Y-103107142D02*
X148122438Y-103011904D01*
X148122438Y-103011904D02*
X148170057Y-102964285D01*
X148170057Y-102964285D02*
X148265295Y-102916666D01*
X148265295Y-102916666D02*
X148408152Y-102916666D01*
X148408152Y-102916666D02*
X148503390Y-102964285D01*
X148503390Y-102964285D02*
X148551009Y-103011904D01*
X148551009Y-103011904D02*
X148598628Y-103107142D01*
X148598628Y-103107142D02*
X148598628Y-103488094D01*
X148170057Y-102535713D02*
X148122438Y-102488094D01*
X148122438Y-102488094D02*
X148074819Y-102392856D01*
X148074819Y-102392856D02*
X148074819Y-102154761D01*
X148074819Y-102154761D02*
X148122438Y-102059523D01*
X148122438Y-102059523D02*
X148170057Y-102011904D01*
X148170057Y-102011904D02*
X148265295Y-101964285D01*
X148265295Y-101964285D02*
X148360533Y-101964285D01*
X148360533Y-101964285D02*
X148503390Y-102011904D01*
X148503390Y-102011904D02*
X149074819Y-102583332D01*
X149074819Y-102583332D02*
X149074819Y-101964285D01*
X144238095Y-87304819D02*
X144238095Y-86304819D01*
X144238095Y-86781009D02*
X144809523Y-86781009D01*
X144809523Y-87304819D02*
X144809523Y-86304819D01*
X145809523Y-87304819D02*
X145238095Y-87304819D01*
X145523809Y-87304819D02*
X145523809Y-86304819D01*
X145523809Y-86304819D02*
X145428571Y-86447676D01*
X145428571Y-86447676D02*
X145333333Y-86542914D01*
X145333333Y-86542914D02*
X145238095Y-86590533D01*
X142354819Y-104988095D02*
X141878628Y-105321428D01*
X142354819Y-105559523D02*
X141354819Y-105559523D01*
X141354819Y-105559523D02*
X141354819Y-105178571D01*
X141354819Y-105178571D02*
X141402438Y-105083333D01*
X141402438Y-105083333D02*
X141450057Y-105035714D01*
X141450057Y-105035714D02*
X141545295Y-104988095D01*
X141545295Y-104988095D02*
X141688152Y-104988095D01*
X141688152Y-104988095D02*
X141783390Y-105035714D01*
X141783390Y-105035714D02*
X141831009Y-105083333D01*
X141831009Y-105083333D02*
X141878628Y-105178571D01*
X141878628Y-105178571D02*
X141878628Y-105559523D01*
X142354819Y-104035714D02*
X142354819Y-104607142D01*
X142354819Y-104321428D02*
X141354819Y-104321428D01*
X141354819Y-104321428D02*
X141497676Y-104416666D01*
X141497676Y-104416666D02*
X141592914Y-104511904D01*
X141592914Y-104511904D02*
X141640533Y-104607142D01*
X124981009Y-95410714D02*
X125028628Y-95267857D01*
X125028628Y-95267857D02*
X125076247Y-95220238D01*
X125076247Y-95220238D02*
X125171485Y-95172619D01*
X125171485Y-95172619D02*
X125314342Y-95172619D01*
X125314342Y-95172619D02*
X125409580Y-95220238D01*
X125409580Y-95220238D02*
X125457200Y-95267857D01*
X125457200Y-95267857D02*
X125504819Y-95363095D01*
X125504819Y-95363095D02*
X125504819Y-95744047D01*
X125504819Y-95744047D02*
X124504819Y-95744047D01*
X124504819Y-95744047D02*
X124504819Y-95410714D01*
X124504819Y-95410714D02*
X124552438Y-95315476D01*
X124552438Y-95315476D02*
X124600057Y-95267857D01*
X124600057Y-95267857D02*
X124695295Y-95220238D01*
X124695295Y-95220238D02*
X124790533Y-95220238D01*
X124790533Y-95220238D02*
X124885771Y-95267857D01*
X124885771Y-95267857D02*
X124933390Y-95315476D01*
X124933390Y-95315476D02*
X124981009Y-95410714D01*
X124981009Y-95410714D02*
X124981009Y-95744047D01*
X124504819Y-94886904D02*
X124504819Y-94315476D01*
X125504819Y-94601190D02*
X124504819Y-94601190D01*
X125504819Y-93458333D02*
X125504819Y-94029761D01*
X125504819Y-93744047D02*
X124504819Y-93744047D01*
X124504819Y-93744047D02*
X124647676Y-93839285D01*
X124647676Y-93839285D02*
X124742914Y-93934523D01*
X124742914Y-93934523D02*
X124790533Y-94029761D01*
X134054819Y-111238094D02*
X133054819Y-111238094D01*
X133054819Y-111238094D02*
X133054819Y-110999999D01*
X133054819Y-110999999D02*
X133102438Y-110857142D01*
X133102438Y-110857142D02*
X133197676Y-110761904D01*
X133197676Y-110761904D02*
X133292914Y-110714285D01*
X133292914Y-110714285D02*
X133483390Y-110666666D01*
X133483390Y-110666666D02*
X133626247Y-110666666D01*
X133626247Y-110666666D02*
X133816723Y-110714285D01*
X133816723Y-110714285D02*
X133911961Y-110761904D01*
X133911961Y-110761904D02*
X134007200Y-110857142D01*
X134007200Y-110857142D02*
X134054819Y-110999999D01*
X134054819Y-110999999D02*
X134054819Y-111238094D01*
X133054819Y-110333332D02*
X133054819Y-109714285D01*
X133054819Y-109714285D02*
X133435771Y-110047618D01*
X133435771Y-110047618D02*
X133435771Y-109904761D01*
X133435771Y-109904761D02*
X133483390Y-109809523D01*
X133483390Y-109809523D02*
X133531009Y-109761904D01*
X133531009Y-109761904D02*
X133626247Y-109714285D01*
X133626247Y-109714285D02*
X133864342Y-109714285D01*
X133864342Y-109714285D02*
X133959580Y-109761904D01*
X133959580Y-109761904D02*
X134007200Y-109809523D01*
X134007200Y-109809523D02*
X134054819Y-109904761D01*
X134054819Y-109904761D02*
X134054819Y-110190475D01*
X134054819Y-110190475D02*
X134007200Y-110285713D01*
X134007200Y-110285713D02*
X133959580Y-110333332D01*
X133691666Y-120904819D02*
X133691666Y-121619104D01*
X133691666Y-121619104D02*
X133644047Y-121761961D01*
X133644047Y-121761961D02*
X133548809Y-121857200D01*
X133548809Y-121857200D02*
X133405952Y-121904819D01*
X133405952Y-121904819D02*
X133310714Y-121904819D01*
X134167857Y-121904819D02*
X134167857Y-120904819D01*
X134167857Y-120904819D02*
X134548809Y-120904819D01*
X134548809Y-120904819D02*
X134644047Y-120952438D01*
X134644047Y-120952438D02*
X134691666Y-121000057D01*
X134691666Y-121000057D02*
X134739285Y-121095295D01*
X134739285Y-121095295D02*
X134739285Y-121238152D01*
X134739285Y-121238152D02*
X134691666Y-121333390D01*
X134691666Y-121333390D02*
X134644047Y-121381009D01*
X134644047Y-121381009D02*
X134548809Y-121428628D01*
X134548809Y-121428628D02*
X134167857Y-121428628D01*
X135691666Y-121904819D02*
X135120238Y-121904819D01*
X135405952Y-121904819D02*
X135405952Y-120904819D01*
X135405952Y-120904819D02*
X135310714Y-121047676D01*
X135310714Y-121047676D02*
X135215476Y-121142914D01*
X135215476Y-121142914D02*
X135120238Y-121190533D01*
X139054819Y-111238094D02*
X138054819Y-111238094D01*
X138054819Y-111238094D02*
X138054819Y-110999999D01*
X138054819Y-110999999D02*
X138102438Y-110857142D01*
X138102438Y-110857142D02*
X138197676Y-110761904D01*
X138197676Y-110761904D02*
X138292914Y-110714285D01*
X138292914Y-110714285D02*
X138483390Y-110666666D01*
X138483390Y-110666666D02*
X138626247Y-110666666D01*
X138626247Y-110666666D02*
X138816723Y-110714285D01*
X138816723Y-110714285D02*
X138911961Y-110761904D01*
X138911961Y-110761904D02*
X139007200Y-110857142D01*
X139007200Y-110857142D02*
X139054819Y-110999999D01*
X139054819Y-110999999D02*
X139054819Y-111238094D01*
X139054819Y-109714285D02*
X139054819Y-110285713D01*
X139054819Y-109999999D02*
X138054819Y-109999999D01*
X138054819Y-109999999D02*
X138197676Y-110095237D01*
X138197676Y-110095237D02*
X138292914Y-110190475D01*
X138292914Y-110190475D02*
X138340533Y-110285713D01*
X133263095Y-116454819D02*
X133834523Y-116454819D01*
X133548809Y-117454819D02*
X133548809Y-116454819D01*
X134167857Y-117454819D02*
X134167857Y-116454819D01*
X134167857Y-116454819D02*
X134548809Y-116454819D01*
X134548809Y-116454819D02*
X134644047Y-116502438D01*
X134644047Y-116502438D02*
X134691666Y-116550057D01*
X134691666Y-116550057D02*
X134739285Y-116645295D01*
X134739285Y-116645295D02*
X134739285Y-116788152D01*
X134739285Y-116788152D02*
X134691666Y-116883390D01*
X134691666Y-116883390D02*
X134644047Y-116931009D01*
X134644047Y-116931009D02*
X134548809Y-116978628D01*
X134548809Y-116978628D02*
X134167857Y-116978628D01*
X135691666Y-117454819D02*
X135120238Y-117454819D01*
X135405952Y-117454819D02*
X135405952Y-116454819D01*
X135405952Y-116454819D02*
X135310714Y-116597676D01*
X135310714Y-116597676D02*
X135215476Y-116692914D01*
X135215476Y-116692914D02*
X135120238Y-116740533D01*
X144738095Y-121554819D02*
X144738095Y-120554819D01*
X144738095Y-121031009D02*
X145309523Y-121031009D01*
X145309523Y-121554819D02*
X145309523Y-120554819D01*
X145738095Y-120650057D02*
X145785714Y-120602438D01*
X145785714Y-120602438D02*
X145880952Y-120554819D01*
X145880952Y-120554819D02*
X146119047Y-120554819D01*
X146119047Y-120554819D02*
X146214285Y-120602438D01*
X146214285Y-120602438D02*
X146261904Y-120650057D01*
X146261904Y-120650057D02*
X146309523Y-120745295D01*
X146309523Y-120745295D02*
X146309523Y-120840533D01*
X146309523Y-120840533D02*
X146261904Y-120983390D01*
X146261904Y-120983390D02*
X145690476Y-121554819D01*
X145690476Y-121554819D02*
X146309523Y-121554819D01*
D11*
%TO.C,D2*%
X145014000Y-114560000D02*
X145170000Y-114560000D01*
X147330000Y-114560000D02*
X147486000Y-114560000D01*
X145014484Y-114560000D02*
G75*
G02*
X145170000Y-111328563I1235516J1560000D01*
G01*
X145170000Y-114040961D02*
G75*
G02*
X145170000Y-111959039I1080000J1040961D01*
G01*
X147330000Y-111328563D02*
G75*
G02*
X147485516Y-114560000I-1080000J-1671437D01*
G01*
X147330000Y-111959039D02*
G75*
G02*
X147330000Y-114040961I-1080000J-1040961D01*
G01*
%TO.C,R2*%
X146250000Y-98710000D02*
X146250000Y-99480000D01*
X146250000Y-106790000D02*
X146250000Y-106020000D01*
X147620000Y-99480000D02*
X144880000Y-99480000D01*
X144880000Y-106020000D01*
X147620000Y-106020000D01*
X147620000Y-99480000D01*
%TO.C,R1*%
X139515000Y-104594365D02*
X139515000Y-105048493D01*
X140985000Y-104594365D02*
X140985000Y-105048493D01*
%TO.C,BT1*%
X111400000Y-99200000D02*
X113200000Y-97400000D01*
X111400000Y-120100000D02*
X111400000Y-99200000D01*
X111400000Y-120100000D02*
X115900000Y-120100000D01*
X113200000Y-97400000D02*
X115900000Y-97400000D01*
X113750000Y-96750000D02*
X113750000Y-94750000D01*
X114750000Y-95750000D02*
X112750000Y-95750000D01*
X115900000Y-94200000D02*
X117450000Y-94200000D01*
X115900000Y-97400000D02*
X115900000Y-94200000D01*
X115900000Y-120100000D02*
X115900000Y-123300000D01*
X115900000Y-123300000D02*
X117450000Y-123300000D01*
X123600000Y-94200000D02*
X122050000Y-94200000D01*
X123600000Y-97400000D02*
X123600000Y-94200000D01*
X123600000Y-120100000D02*
X123600000Y-123300000D01*
X123600000Y-123300000D02*
X122050000Y-123300000D01*
X128100000Y-97400000D02*
X123600000Y-97400000D01*
X128100000Y-97400000D02*
X128100000Y-120100000D01*
X128100000Y-120100000D02*
X123600000Y-120100000D01*
%TO.C,D3*%
X134290000Y-109500000D02*
X134290000Y-112185000D01*
X134290000Y-112185000D02*
X136210000Y-112185000D01*
X136210000Y-112185000D02*
X136210000Y-109500000D01*
%TO.C,JP1*%
X133125000Y-122250000D02*
X135925000Y-122250000D01*
X133125000Y-124250000D02*
X133125000Y-122250000D01*
X135925000Y-122250000D02*
X135925000Y-124250000D01*
X135925000Y-124250000D02*
X133125000Y-124250000D01*
%TO.C,D1*%
X139290000Y-109500000D02*
X139290000Y-112185000D01*
X139290000Y-112185000D02*
X141210000Y-112185000D01*
X141210000Y-112185000D02*
X141210000Y-109500000D01*
%TO.C,TP1*%
X132625000Y-118150000D02*
X136425000Y-118150000D01*
X136425000Y-120350000D01*
X132625000Y-120350000D01*
X132625000Y-118150000D01*
%TD*%
D12*
X146250000Y-114270000D03*
X146250000Y-111730000D03*
X146250000Y-97670000D03*
X146250000Y-107830000D03*
X142600000Y-91000000D03*
X143302944Y-89302944D03*
X143302944Y-92697056D03*
X145000000Y-88600000D03*
X145000000Y-91000000D03*
X145000000Y-93400000D03*
X146697056Y-89302944D03*
X146697056Y-92697056D03*
X147400000Y-91000000D03*
X143100000Y-125250000D03*
X143802944Y-123552944D03*
X143802944Y-126947056D03*
X145500000Y-122850000D03*
X145500000Y-125250000D03*
X145500000Y-127650000D03*
X147197056Y-123552944D03*
X147197056Y-126947056D03*
X147900000Y-125250000D03*
M02*
